<svg width="35" height="42" viewBox="0 0 35 42" fill="none" xmlns="http://www.w3.org/2000/svg">
<g clip-path="url(#clip0_5_392)">
<path d="M6.08728 20.1075C5.70352 20.1075 5.39258 19.8089 5.39258 19.4409V5.07938C5.39258 4.71136 5.70352 4.41272 6.08728 4.41272H22.5201C22.9038 4.41272 23.2153 4.71136 23.2153 5.07938C23.2153 5.4474 22.9053 5.74801 22.5216 5.74801H6.78199V19.4409C6.78199 19.8089 6.47104 20.1075 6.08728 20.1075Z" fill="#9D4858" stroke="#9D4858" stroke-width="0.75"/>
<path d="M22.5215 37.5877H6.08875C5.70499 37.5877 5.39404 37.2891 5.39404 36.9211V22.5591C5.39404 22.1911 5.70499 21.8925 6.08875 21.8925C6.47251 21.8925 6.78345 22.1911 6.78345 22.5591V36.2544H22.5225C22.9063 36.2544 23.2177 36.5526 23.2177 36.9211C23.2177 37.2896 22.9053 37.5877 22.5215 37.5877Z" fill="#9D4858" stroke="#9D4858" stroke-width="0.75"/>
<path d="M22.5215 41.91C22.3817 41.9101 22.2448 41.8693 22.1279 41.7924C22.0363 41.7329 21.9609 41.6516 21.9085 41.5558C21.8561 41.4599 21.8284 41.3526 21.8278 41.2433V0.756657C21.8285 0.647384 21.8563 0.539985 21.9087 0.444136C21.9612 0.348286 22.0367 0.266995 22.1284 0.207585C22.222 0.146406 22.3285 0.107881 22.4395 0.0950699C22.5505 0.0822588 22.663 0.095515 22.768 0.133785L34.5554 4.4565C34.6848 4.50187 34.7971 4.58599 34.877 4.69743C34.957 4.80888 35.0006 4.94223 35.0021 5.07937V36.9206C35.0006 37.0578 34.957 37.1911 34.877 37.3025C34.7971 37.414 34.6848 37.4981 34.5554 37.5435L22.769 41.8662C22.6898 41.8953 22.606 41.9101 22.5215 41.91ZM23.2158 1.7254V40.2746L33.6142 36.4616V5.5384L23.2158 1.7254Z" fill="#9D4858" stroke="#9D4858" stroke-width="0.75"/>
<path d="M24.9226 23.5038C24.5393 23.5038 24.2284 23.2051 24.2284 22.8371V19.1629C24.2284 18.7949 24.5393 18.4962 24.9226 18.4962C25.3059 18.4962 25.6163 18.7949 25.6163 19.1629V22.8371C25.6163 23.2051 25.3064 23.5038 24.9226 23.5038Z" fill="#9D4858" stroke="#9D4858" stroke-width="0.75"/>
<path d="M9.61 24.5547C9.48854 24.5549 9.36903 24.5243 9.26265 24.4657C9.15838 24.4092 9.07115 24.3259 9.01006 24.2243C8.94896 24.1227 8.91624 24.0066 8.9153 23.888V23.2258H0.491273C0.107514 23.2258 -0.20343 22.9272 -0.20343 22.5592V19.4409C-0.20343 19.0728 0.107514 18.7742 0.491273 18.7742H8.9153V18.112C8.91624 17.9934 8.94896 17.8773 9.01006 17.7757C9.07115 17.6741 9.15838 17.5908 9.26265 17.5344C9.36905 17.4758 9.48854 17.4451 9.61 17.4451C9.73146 17.4451 9.85095 17.4758 9.95735 17.5344L15.1681 20.4224C15.273 20.4781 15.3608 20.5612 15.422 20.663C15.4832 20.7647 15.5155 20.8813 15.5155 21C15.5155 21.1188 15.4832 21.2353 15.422 21.337C15.3608 21.4388 15.273 21.522 15.1681 21.5776L9.95735 24.4657C9.851 24.5243 9.73146 24.555 9.61 24.5547ZM1.18549 21.8925H9.61C9.99376 21.8925 10.3047 22.1906 10.3047 22.5592V22.7333L13.4314 21L10.3047 19.2667V19.4409C10.3047 19.8094 9.99376 20.108 9.61 20.108H1.18549V21.8925Z" fill="#9D4858" stroke="#9D4858" stroke-width="0.75"/>
</g>
<defs>
<clipPath id="clip0_5_392">
<rect width="34.8" height="42" fill="white"/>
</clipPath>
</defs>
</svg>
