<svg width="36" height="36" viewBox="0 0 36 36" fill="none" xmlns="http://www.w3.org/2000/svg">
<path fill-rule="evenodd" clip-rule="evenodd" d="M15.6203 35.6194C14.9118 35.6194 14.2994 35.0906 14.1951 34.3893L13.6466 30.6899C13.6342 30.6052 13.5785 30.5339 13.501 30.506C13.0869 30.3511 12.6769 30.1735 12.2803 29.9773C12.2038 29.9401 12.1129 29.9483 12.0427 29.9989L9.01871 32.1802C8.44241 32.5964 7.65955 32.5334 7.15658 32.0304L3.90639 28.7803C3.40549 28.2793 3.34558 27.4727 3.768 26.9026L6.06596 23.8063C6.11656 23.7382 6.12586 23.6462 6.09074 23.5667C5.92653 23.2032 5.77781 22.8283 5.64768 22.4523C5.61876 22.3687 5.54749 22.3067 5.46177 22.2933L1.67143 21.6798C0.969132 21.5662 0.460999 20.9682 0.460999 20.2577V15.6607C0.460999 14.9512 0.988755 14.3398 1.69105 14.2355L5.55679 13.6623C5.64148 13.6499 5.71274 13.59 5.74476 13.5073C5.87696 13.149 6.02774 12.7926 6.19092 12.4477C6.22914 12.3682 6.22087 12.2763 6.17027 12.206L3.90019 9.06117C3.48398 8.48487 3.54698 7.70202 4.04995 7.19905L7.30014 3.94886C7.80104 3.44795 8.60766 3.38805 9.17776 3.81046L12.2834 6.11462C12.3526 6.16626 12.4455 6.17452 12.5271 6.13631C12.8865 5.96796 13.2583 5.81304 13.6342 5.67671C13.7169 5.64676 13.7757 5.57653 13.7902 5.49185L14.4016 1.71183C14.5152 1.00953 15.1132 0.500366 15.8238 0.500366H20.4197C21.1282 0.500366 21.7406 1.02812 21.8449 1.73042L22.3964 5.44744C22.4088 5.53316 22.4667 5.60545 22.5472 5.63334C22.9635 5.77896 23.3766 5.94937 23.7752 6.13631C23.8506 6.17142 23.9405 6.16213 24.0117 6.11152L27.0213 3.93853C27.5976 3.52231 28.3804 3.58531 28.8834 4.08828L32.1336 7.33848C32.6345 7.83938 32.6944 8.64599 32.272 9.21609L30.1021 12.142C30.0505 12.2122 30.0412 12.3062 30.0804 12.3888C30.2849 12.8154 30.4687 13.2574 30.6268 13.7056C30.6567 13.7893 30.728 13.8513 30.8127 13.8637L34.3696 14.4389C35.0719 14.5525 35.5811 15.1505 35.5811 15.8611V20.458C35.5811 21.1665 35.0523 21.779 34.351 21.8833L30.8003 22.41C30.7135 22.4224 30.6412 22.4833 30.6123 22.569C30.4481 23.0307 30.255 23.4872 30.0401 23.9282C30.0009 24.0088 30.0081 24.1027 30.0587 24.173L32.1419 27.0607C32.5581 27.637 32.4951 28.4198 31.9921 28.9228L28.7419 32.173C28.241 32.6739 27.4344 32.7338 26.8643 32.3114L23.9487 30.1487C23.8795 30.0981 23.7866 30.0888 23.705 30.126C23.2754 30.3243 22.8292 30.5029 22.3789 30.6537C22.2942 30.6827 22.2333 30.7529 22.2188 30.8376L21.6415 34.409C21.5279 35.1113 20.9299 35.6204 20.2193 35.6204L15.6203 35.6194ZM12.8142 28.8959C13.1747 29.0736 13.5475 29.2357 13.9234 29.3762C14.4109 29.559 14.7621 29.9938 14.8385 30.5133L15.3869 34.2138C15.4045 34.3284 15.5036 34.4152 15.6193 34.4152H20.2162C20.3329 34.4152 20.43 34.3325 20.4486 34.2169L21.0259 30.6455C21.1117 30.1177 21.4814 29.6829 21.9916 29.5115C22.4006 29.3741 22.8065 29.212 23.1969 29.0323C23.6792 28.8092 24.241 28.867 24.6645 29.181L27.579 31.3426C27.6719 31.4118 27.8041 31.4015 27.8857 31.3199L31.1359 28.0697C31.2175 27.9881 31.2289 27.86 31.1607 27.7661L29.0765 24.8773C28.7646 24.4456 28.7182 23.8776 28.9526 23.3973C29.1478 22.9966 29.3234 22.5825 29.4721 22.1632C29.6518 21.6571 30.0928 21.2946 30.6195 21.2171L34.1703 20.6904C34.2849 20.6728 34.3717 20.5737 34.3717 20.458V15.8611C34.3717 15.7444 34.288 15.6473 34.1734 15.6287L30.6164 15.0534C30.0949 14.9687 29.6621 14.6052 29.4866 14.1053C29.344 13.6994 29.1767 13.2977 28.9908 12.9104C28.7574 12.4239 28.8101 11.8538 29.1302 11.4232L31.3001 8.49727C31.3693 8.40432 31.359 8.27212 31.2774 8.19053L28.0272 4.94034C27.9456 4.85771 27.8176 4.84738 27.7236 4.91555L24.713 7.08751C24.2875 7.39425 23.7308 7.44692 23.2588 7.2259C22.8963 7.05549 22.5214 6.90161 22.1434 6.76941C21.6404 6.59177 21.2779 6.15283 21.1994 5.62301L20.649 1.90703C20.6314 1.79239 20.5323 1.70563 20.4166 1.70563H15.8196C15.7029 1.70563 15.6058 1.78826 15.5873 1.90393L14.9758 5.68394C14.8932 6.19931 14.5338 6.63101 14.0412 6.80969C13.7003 6.93259 13.3626 7.07305 13.0352 7.22694C12.5529 7.45415 11.988 7.39734 11.5614 7.08131L8.4548 4.77715C8.36185 4.70796 8.22965 4.71829 8.14806 4.79988L4.89993 8.0511C4.81834 8.13269 4.80698 8.26076 4.87515 8.35474L7.14522 11.5006C7.45196 11.9261 7.5036 12.488 7.27742 12.9641C7.1287 13.277 6.99237 13.6013 6.87153 13.9277C6.6877 14.4234 6.25083 14.7797 5.7303 14.8562L1.86456 15.4294C1.74992 15.4469 1.66317 15.5461 1.66317 15.6617V20.2577C1.66317 20.3744 1.74579 20.4714 1.86146 20.49L5.65181 21.1035C6.17647 21.1882 6.6092 21.5538 6.78478 22.0578C6.90252 22.3997 7.03781 22.7395 7.18757 23.0699C7.40342 23.5471 7.34455 24.1048 7.03265 24.5241L4.73572 27.6204C4.66652 27.7134 4.67685 27.8456 4.75844 27.9272L8.0076 31.1774C8.08919 31.26 8.21726 31.2703 8.31124 31.2021L11.3353 29.0209C11.7856 28.6987 12.3515 28.6666 12.8142 28.8959Z" fill="#9D4858" stroke="#9D4858" stroke-width="0.55"/>
<path fill-rule="evenodd" clip-rule="evenodd" d="M18.0185 28.0955C12.4848 28.0955 7.98181 23.5936 7.98181 18.0589C7.98181 12.5242 12.4837 8.02222 18.0185 8.02222C23.5532 8.02222 28.0551 12.5242 28.0551 18.0589C28.0551 23.5936 23.5522 28.0955 18.0185 28.0955ZM18.0185 9.22852C13.1489 9.22852 9.18811 13.1893 9.18811 18.0589C9.18811 22.9285 13.1489 26.8892 18.0185 26.8892C22.8881 26.8892 26.8488 22.9285 26.8488 18.0589C26.8488 13.1893 22.8871 9.22852 18.0185 9.22852Z" fill="#9D4858" stroke="#9D4858" stroke-width="0.55"/>
<path fill-rule="evenodd" clip-rule="evenodd" d="M20.1068 27.8632C19.7742 27.8632 19.5036 27.5936 19.5036 27.26V21.8141C19.5036 21.5859 19.6317 21.3783 19.8341 21.276C22.2581 20.0491 22.7528 16.896 21.0136 14.9781V17.3556C21.0136 17.5921 20.8762 17.8059 20.6614 17.904L18.2694 18.9977C18.1104 19.071 17.9276 19.071 17.7675 18.9977L15.3756 17.904C15.1607 17.8059 15.0234 17.591 15.0234 17.3556V14.9791C13.2831 16.896 13.7789 20.0511 16.2028 21.2771C16.4053 21.3803 16.5333 21.5879 16.5333 21.8151V27.2611C16.5333 27.5936 16.2638 27.8642 15.9302 27.8642C15.5966 27.8642 15.327 27.5946 15.327 27.2611V22.1715C11.955 20.1565 11.9188 15.2466 15.3146 13.1955C15.7164 12.9528 16.2297 13.2419 16.2297 13.7108V16.9683L18.0185 17.7862L19.8073 16.9683V13.7108C19.8073 13.2419 20.3206 12.9528 20.7223 13.1955C24.1212 15.2497 24.0779 20.1585 20.7099 22.1715V27.2611C20.7099 27.5936 20.4393 27.8632 20.1068 27.8632Z" fill="#9D4858" stroke="#9D4858" stroke-width="0.55"/>
</svg>
