<svg width="33" height="33" viewBox="0 0 33 33" fill="none" xmlns="http://www.w3.org/2000/svg">
<path d="M2.91195 31.0588V9.72753L1.4466 10.5518C0.979384 10.8146 0.387641 10.6489 0.124801 10.1817C-0.137974 9.71451 0.0277352 9.12277 0.494891 8.85993L16.0243 0.124668C16.3198 -0.0415561 16.6806 -0.0415561 16.9761 0.124668L32.5055 8.85993C32.9727 9.12277 33.1383 9.71451 32.8755 10.1817C32.6127 10.649 32.021 10.8146 31.5537 10.5518L30.0884 9.72753V31.0588H32.0296C32.5657 31.0588 33.0002 31.4933 33.0002 32.0294C33.0002 32.5655 32.5657 33 32.0296 33H0.970748C0.434692 33 0.000151572 32.5655 0.000151572 32.0294C0.000151572 31.4933 0.434692 31.0588 0.970748 31.0588H2.91195ZM4.85315 31.0588H28.1473V8.63563L16.5002 2.08417L4.85315 8.63563V31.0588ZM18.2404 19.2108C18.6194 18.8317 19.2339 18.8317 19.613 19.2108C19.992 19.5898 19.992 20.2043 19.613 20.5834L17.1865 23.0098C16.8075 23.3889 16.193 23.3889 15.8139 23.0098L13.3874 20.5834C13.0084 20.2044 13.0084 19.5898 13.3874 19.2108C13.7664 18.8317 14.381 18.8317 14.76 19.2108L15.5296 19.9803V14.0735C15.5296 13.5375 15.9641 13.1029 16.5002 13.1029C17.0363 13.1029 17.4708 13.5375 17.4708 14.0735V19.9803L18.2404 19.2108ZM11.4462 24.0637C11.8253 23.6847 12.4398 23.6847 12.8188 24.0637C13.1979 24.4428 13.1979 25.0572 12.8188 25.4363L10.3924 27.8628C10.0133 28.2418 9.39883 28.2418 9.01978 27.8628L6.59332 25.4363C6.21427 25.0573 6.21427 24.4428 6.59332 24.0637C6.97236 23.6847 7.58686 23.6847 7.96591 24.0637L8.73548 24.8333V18.9265C8.73548 18.3904 9.17002 17.9559 9.70608 17.9559C10.2421 17.9559 10.6767 18.3904 10.6767 18.9265V24.8333L11.4462 24.0637ZM22.3237 18.9265C22.3237 18.3904 22.7583 17.9559 23.2943 17.9559C23.8304 17.9559 24.2649 18.3904 24.2649 18.9265V24.8333L25.0345 24.0637C25.4135 23.6847 26.0281 23.6847 26.4071 24.0637C26.7861 24.4428 26.7861 25.0572 26.4071 25.4363L23.9806 27.8628C23.6016 28.2418 22.9871 28.2418 22.608 27.8628L20.1816 25.4363C19.8025 25.0573 19.8025 24.4428 20.1816 24.0637C20.5606 23.6847 21.1751 23.6847 21.5542 24.0637L22.3237 24.8333V18.9265Z" fill="#9D4858"/>
</svg>
