<svg width="40" height="40" viewBox="0 0 40 40" fill="none" xmlns="http://www.w3.org/2000/svg">
<path d="M6.56718 36.6667H33.4332C33.8018 36.6667 34.0998 36.368 34.0998 36V19.0427L34.9585 19.9014C35.0885 20.0314 35.2592 20.0967 35.4298 20.0967C35.6005 20.0967 35.7712 20.0314 35.9012 19.9014C36.1618 19.6407 36.1618 19.2194 35.9012 18.9587L33.9178 16.9747C33.9072 16.9634 33.8972 16.9534 33.8858 16.9427L31.0325 14.0894V4.00004C31.0325 3.63204 30.7345 3.33337 30.3658 3.33337H25.3532C24.9845 3.33337 24.6865 3.63204 24.6865 4.00004V7.74337L20.4718 3.52871C20.2218 3.27871 19.7792 3.27871 19.5292 3.52871L6.11318 16.944C6.10252 16.954 6.09318 16.9634 6.08385 16.9734L4.09852 18.9587C3.83785 19.2194 3.83785 19.6407 4.09852 19.9014C4.35918 20.162 4.78052 20.162 5.04118 19.9014L5.90052 19.042V36C5.90052 36.368 6.19852 36.6667 6.56718 36.6667ZM19.9998 4.94271L24.8812 9.82471C25.0725 10.016 25.3592 10.0734 25.6078 9.96938C25.8565 9.86604 26.0192 9.62271 26.0192 9.35337V4.66671H29.6985V14.3654C29.6985 14.542 29.7685 14.712 29.8938 14.8367L32.7665 17.7094V35.3334H7.23385V17.7087L19.9998 4.94271Z" fill="#9D4858" stroke="#9D4858" stroke-width="0.75"/>
<path d="M13.8972 30.1047H26.1025C26.4712 30.1047 26.7692 29.806 26.7692 29.438V17.2327C26.7692 16.8647 26.4712 16.566 26.1025 16.566H13.8972C13.5285 16.566 13.2305 16.8647 13.2305 17.2327V29.438C13.2305 29.806 13.5285 30.1047 13.8972 30.1047ZM14.5639 24.002H19.3332V28.7714H14.5639V24.002ZM20.6665 28.7714V24.002H25.4352V28.7714H20.6665ZM25.4359 22.6687H20.6665V17.8994H25.4352L25.4359 22.6687ZM19.3332 17.8994V22.6687H14.5639V17.8994H19.3332Z" fill="#9D4858" stroke="#9D4858" stroke-width="0.75"/>
</svg>
