<svg width="21" height="21" viewBox="0 0 21 21" fill="none" xmlns="http://www.w3.org/2000/svg">
<path d="M10.6546 5.50928C13.4231 5.50928 15.7083 7.79443 15.7083 10.563C15.7083 13.3755 13.4231 15.6167 10.6546 15.6167C7.84206 15.6167 5.60085 13.3755 5.60085 10.563C5.60085 7.79443 7.84206 5.50928 10.6546 5.50928ZM10.6546 13.8589C12.4563 13.8589 13.9065 12.4087 13.9065 10.563C13.9065 8.76123 12.4563 7.31103 10.6546 7.31103C8.80886 7.31103 7.35866 8.76123 7.35866 10.563C7.35866 12.4087 8.8528 13.8589 10.6546 13.8589ZM17.0706 5.33349C17.0706 5.99267 16.5432 6.52002 15.8841 6.52002C15.2249 6.52002 14.6975 5.99267 14.6975 5.33349C14.6975 4.67431 15.2249 4.14697 15.8841 4.14697C16.5432 4.14697 17.0706 4.67431 17.0706 5.33349ZM20.4104 6.52002C20.4983 8.14599 20.4983 13.0239 20.4104 14.6499C20.3225 16.2319 19.971 17.5942 18.8284 18.7808C17.6858 19.9233 16.2796 20.2749 14.6975 20.3628C13.0716 20.4507 8.19362 20.4507 6.56765 20.3628C4.98562 20.2749 3.62331 19.9233 2.43679 18.7808C1.29421 17.5942 0.942646 16.2319 0.854755 14.6499C0.766865 13.0239 0.766865 8.14599 0.854755 6.52002C0.942646 4.93799 1.29421 3.53174 2.43679 2.38916C3.62331 1.24658 4.98562 0.895016 6.56765 0.807126C8.19362 0.719235 13.0716 0.719235 14.6975 0.807126C16.2796 0.895016 17.6858 1.24658 18.8284 2.38916C19.971 3.53174 20.3225 4.93799 20.4104 6.52002ZM18.301 16.3638C18.8284 15.0894 18.6966 12.0132 18.6966 10.563C18.6966 9.15674 18.8284 6.08056 18.301 4.7622C17.9495 3.92724 17.2903 3.22412 16.4553 2.9165C15.137 2.38916 12.0608 2.52099 10.6546 2.52099C9.20437 2.52099 6.12819 2.38916 4.85378 2.9165C3.97487 3.26806 3.31569 3.92724 2.96413 4.7622C2.43679 6.08056 2.56862 9.15674 2.56862 10.563C2.56862 12.0132 2.43679 15.0894 2.96413 16.3638C3.31569 17.2427 3.97487 17.9019 4.85378 18.2534C6.12819 18.7808 9.20437 18.6489 10.6546 18.6489C12.0608 18.6489 15.137 18.7808 16.4553 18.2534C17.2903 17.9019 17.9934 17.2427 18.301 16.3638Z" fill="#222222"/>
</svg>
