<svg width="21" height="20" viewBox="0 0 21 20" fill="none" xmlns="http://www.w3.org/2000/svg">
<path d="M4.73671 20.0005H0.649791V6.86084H4.73671V20.0005ZM2.67128 5.10302C1.39686 5.10302 0.342174 4.00439 0.342174 2.68603C0.342174 1.41162 1.39686 0.35693 2.67128 0.35693C3.98964 0.35693 5.04432 1.41162 5.04432 2.68603C5.04432 4.00439 3.98964 5.10302 2.67128 5.10302ZM19.9857 20.0005H15.9428V13.6284C15.9428 12.0903 15.8988 10.1567 13.7894 10.1567C11.6801 10.1567 11.3724 11.7827 11.3724 13.4966V20.0005H7.28553V6.86084H11.1967V8.6626H11.2406C11.8119 7.65185 13.1303 6.55322 15.1078 6.55322C19.2387 6.55322 20.0297 9.27783 20.0297 12.7935V20.0005H19.9857Z" fill="#222222"/>
</svg>
