<svg width="25" height="24" viewBox="0 0 25 24" fill="none" xmlns="http://www.w3.org/2000/svg">
<g clip-path="url(#clip0_1_931)">
<path d="M21.1766 8.45C20.1266 3.83 16.0966 1.75 12.5566 1.75C12.5566 1.75 12.5566 1.75 12.5466 1.75C9.01661 1.75 4.97661 3.82 3.92661 8.44C2.75661 13.6 5.91661 17.97 8.77661 20.72C9.83661 21.74 11.1966 22.25 12.5566 22.25C13.9166 22.25 15.2766 21.74 16.3266 20.72C19.1866 17.97 22.3466 13.61 21.1766 8.45ZM12.5566 13.46C10.8166 13.46 9.40661 12.05 9.40661 10.31C9.40661 8.57 10.8166 7.16 12.5566 7.16C14.2966 7.16 15.7066 8.57 15.7066 10.31C15.7066 12.05 14.2966 13.46 12.5566 13.46Z" fill="#9D4858"/>
</g>
<defs>
<clipPath id="clip0_1_931">
<rect width="24" height="24" fill="white" transform="translate(0.556641)"/>
</clipPath>
</defs>
</svg>
