<svg width="35" height="29" viewBox="0 0 35 29" fill="none" xmlns="http://www.w3.org/2000/svg">
<path d="M30.5784 28.4807H4.47169C2.54803 28.4807 1.03659 26.9692 1.03659 25.0456V8.55711C1.03659 6.63345 2.54803 5.12201 4.47169 5.12201H30.5784C32.5021 5.12201 34.0135 6.63345 34.0135 8.55711V25.0456C34.0135 26.9692 32.5021 28.4807 30.5784 28.4807ZM4.47169 6.49605C3.37246 6.49605 2.41063 7.45787 2.41063 8.55711V25.0456C2.41063 26.1448 3.37246 27.1066 4.47169 27.1066H30.5784C31.6776 27.1066 32.6395 26.1448 32.6395 25.0456V8.55711C32.6395 7.45787 31.6776 6.49605 30.5784 6.49605H4.47169Z" fill="#9D4858" stroke="#9D4858"/>
<path d="M22.3342 6.49615C21.9219 6.49615 21.6471 6.22135 21.6471 5.80913V3.06106C21.6471 2.64885 21.3723 2.37404 20.9601 2.37404H14.0899C13.6777 2.37404 13.4029 2.64885 13.4029 3.06106V5.80913C13.4029 6.22135 13.1281 6.49615 12.7159 6.49615C12.3037 6.49615 12.0289 6.22135 12.0289 5.80913V3.06106C12.0289 1.96183 12.9907 1 14.0899 1H20.9601C22.0594 1 23.0212 1.96183 23.0212 3.06106V5.80913C23.0212 6.22135 22.7464 6.49615 22.3342 6.49615Z" fill="#9D4858" stroke="#9D4858"/>
<path d="M17.525 17.4883C17.3876 17.4883 17.3876 17.4883 17.2502 17.4883L1.44876 11.9922C1.17395 11.8548 0.899144 11.4425 1.03655 11.0303C1.17395 10.7555 1.58616 10.4807 1.99837 10.6181L17.525 16.1143L33.0516 10.6181C33.4639 10.4807 33.7387 10.6181 33.8761 11.0303C34.0135 11.4425 33.8761 11.7173 33.4639 11.8548L17.6624 17.3509C17.6624 17.4883 17.6624 17.4883 17.525 17.4883Z" fill="#9D4858" stroke="#9D4858"/>
</svg>
