<svg width="125" height="70" viewBox="0 0 125 70" fill="none" xmlns="http://www.w3.org/2000/svg">
<path fill-rule="evenodd" clip-rule="evenodd" d="M105.446 61.7562C105.443 61.8145 105.419 61.8698 105.378 61.911C105.336 61.9523 105.281 61.9767 105.223 61.9794H19.7552C19.7006 61.9727 19.6504 61.9463 19.6139 61.9052C19.5773 61.8642 19.5571 61.8112 19.5568 61.7562C19.5601 61.7049 19.5822 61.6567 19.6187 61.6206C19.6553 61.5845 19.7039 61.5632 19.7552 61.5606H105.223C105.278 61.5596 105.331 61.579 105.372 61.6152C105.414 61.6514 105.44 61.7017 105.446 61.7562Z" fill="#78596C"/>
<path fill-rule="evenodd" clip-rule="evenodd" d="M63.7619 35.8953V43.1664C63.7593 43.2243 63.7353 43.2792 63.6946 43.3204C63.6539 43.3616 63.5993 43.3863 63.5415 43.3896C63.3899 43.3703 63.3073 43.2987 63.2935 43.1664V35.8953C63.2109 34.9053 62.6662 34.3625 61.6597 34.267C60.6696 34.3625 60.1259 34.9053 60.0285 35.8953V43.1664C60.0253 43.2246 60.0007 43.2794 59.9595 43.3206C59.9184 43.3618 59.8635 43.3863 59.8054 43.3896C59.7438 43.3905 59.6842 43.3679 59.6387 43.3265C59.5931 43.285 59.565 43.2278 59.5602 43.1664V35.8953C59.6897 34.6279 60.3867 33.9364 61.6597 33.8206C62.9307 33.9364 63.6315 34.6279 63.7619 35.8953ZM68.7792 42.1525C68.928 42.136 69.0024 42.0616 69.0024 41.9293V19.2068C69.0024 19.0773 68.928 19.0029 68.7792 18.9864C68.7216 18.9891 68.6671 19.0132 68.6263 19.0539C68.5856 19.0947 68.5615 19.1492 68.5588 19.2068V41.9293C68.5614 41.9872 68.5854 42.0421 68.6261 42.0833C68.6668 42.1245 68.7214 42.1492 68.7792 42.1525ZM56.2456 18.9864H53.7245C53.6667 18.989 53.6118 19.013 53.5706 19.0537C53.5294 19.0944 53.5047 19.149 53.5014 19.2068V22.4002C53.5047 22.458 53.5294 22.5125 53.5706 22.5532C53.6118 22.594 53.6667 22.6179 53.7245 22.6206H56.2456C56.3944 22.604 56.4688 22.5296 56.4688 22.4002V19.2068C56.4688 19.0773 56.3944 19.0029 56.2456 18.9864ZM54.7633 22.1632H53.9367V20.9784H54.7633V22.1632ZM54.7633 20.5348H53.9367V19.4327H54.7633V20.5348ZM56.0224 22.1632H55.1958V20.9784H56.0224V22.1632ZM56.0224 20.5348H55.1958V19.4327H56.0224V20.5348ZM56.2456 25.4282H53.7245C53.5923 25.4282 53.5179 25.4998 53.5014 25.6486V28.8392C53.5041 28.8975 53.5284 28.9527 53.5697 28.994C53.611 29.0353 53.6662 29.0596 53.7245 29.0623H56.2456C56.3944 29.0458 56.4688 28.9714 56.4688 28.8392V25.6596C56.473 25.6294 56.4701 25.5987 56.4603 25.5698C56.4505 25.541 56.4342 25.5148 56.4125 25.4934C56.3908 25.472 56.3644 25.4559 56.3355 25.4465C56.3065 25.4371 56.2757 25.4346 56.2456 25.4392M54.7633 28.6022H53.9367V27.4423H54.7633V28.6022ZM54.7633 26.9959H53.9367V25.8938H54.7633V26.9959ZM56.0224 28.6022H55.1958V27.4423H56.0224V28.6022ZM56.0224 26.9959H55.1958V25.8938H56.0224V26.9959ZM64.2882 18.9864H61.7644C61.6156 19.0029 61.5439 19.0773 61.5439 19.2068V22.4002C61.5439 22.5296 61.6156 22.604 61.7644 22.6206H64.2882C64.4342 22.604 64.5086 22.5296 64.5086 22.4002V19.2068C64.5086 19.0773 64.4342 19.0029 64.2882 18.9864ZM62.7976 22.1632H61.971V20.9784H62.7976V22.1632ZM62.7976 20.5348H61.971V19.4327H62.7976V20.5348ZM64.0567 22.1632H63.2301V20.9784H64.0567V22.1632ZM64.0567 20.5348H63.2301V19.4327H64.0567V20.5348ZM41.0642 35.4903C41.0063 35.4937 40.9518 35.5183 40.9111 35.5596C40.8704 35.6008 40.8464 35.6556 40.8438 35.7135V38.9013C40.8464 38.9592 40.8704 39.014 40.9111 39.0553C40.9518 39.0965 41.0063 39.1211 41.0642 39.1245H43.6128C43.6709 39.1212 43.7258 39.0966 43.7669 39.0555C43.8081 39.0143 43.8327 38.9594 43.836 38.9013V35.7245C43.8327 35.6664 43.8081 35.6115 43.7669 35.5704C43.7258 35.5292 43.6709 35.5046 43.6128 35.5013H41.0642M42.1029 38.6947H41.3122V37.532H42.1029V38.6947ZM42.1029 37.0608H41.3122V35.9587H42.1029V37.0608ZM43.3896 38.6947H42.563V37.532H43.3896V38.6947ZM43.3896 37.0608H42.563V35.9587H43.3896V37.0608ZM64.2826 25.4419H61.7588C61.7288 25.4372 61.6981 25.4397 61.6692 25.4491C61.6403 25.4585 61.6141 25.4746 61.5926 25.4961C61.5711 25.5176 61.555 25.5438 61.5456 25.5727C61.5362 25.6016 61.5337 25.6323 61.5384 25.6624V28.8529C61.5384 28.9852 61.6101 29.0596 61.7588 29.0761H64.2826C64.4287 29.0596 64.5031 28.9852 64.5031 28.8529V25.6596C64.5072 25.6297 64.5043 25.5992 64.4947 25.5706C64.4851 25.542 64.4689 25.516 64.4476 25.4947C64.4262 25.4733 64.4002 25.4572 64.3716 25.4476C64.343 25.4379 64.3126 25.4351 64.2826 25.4392M62.7976 28.6022H61.971V27.4423H62.7976V28.6022ZM62.7976 26.9959H61.971V25.8938H62.7976V26.9959ZM64.0567 28.6022H63.2301V27.4423H64.0567V28.6022ZM64.0567 26.9959H63.2301V25.8938H64.0567V26.9959ZM83.6383 35.5013H81.1172C81.0589 35.504 81.0037 35.5284 80.9624 35.5697C80.9211 35.611 80.8967 35.6662 80.894 35.7245V38.9123C80.8967 38.9707 80.9211 39.0259 80.9624 39.0672C81.0037 39.1085 81.0589 39.1328 81.1172 39.1355H83.6383C83.787 39.119 83.8614 39.0446 83.8614 38.9123V35.7245C83.8614 35.5923 83.787 35.5179 83.6383 35.5013ZM82.1559 38.6947H81.3294V37.532H82.1559V38.6947ZM82.1559 37.0608H81.3294V35.9587H82.1559V37.0608ZM83.4178 38.6947H82.5913V37.532H83.4178V38.6947ZM83.4178 37.0608H82.5913V35.9587H83.4178V37.0608ZM124.804 35.3553H97.9655C97.6845 25.3519 94.2065 17.0201 87.5314 10.3597C80.8564 3.69938 72.5126 0.246135 62.5 0C52.4783 0.246135 44.1381 3.69846 37.4796 10.357C30.8211 17.0155 27.344 25.3473 27.0483 35.3526H0.198378C0.14683 35.3558 0.0982397 35.3778 0.0617178 35.4143C0.0251959 35.4508 0.00325144 35.4994 0 35.5509V69.198C0.000650115 69.2229 0.00639693 69.2473 0.0168845 69.2699C0.027372 69.2925 0.0423775 69.3126 0.0609723 69.3292C0.0795672 69.3457 0.101356 69.3582 0.12499 69.366C0.148625 69.3738 0.173603 69.3766 0.198378 69.3743H124.804C124.829 69.3766 124.854 69.3738 124.877 69.366C124.901 69.3582 124.922 69.3456 124.941 69.329C124.959 69.3125 124.974 69.2923 124.984 69.2697C124.994 69.2472 125 69.2227 125 69.198V35.5509C124.997 35.4996 124.976 35.4511 124.94 35.4145C124.904 35.3779 124.856 35.3559 124.804 35.3526M62.5 0.592378C72.3399 0.84035 80.5404 4.23849 87.1016 10.7868C93.6628 17.3351 97.082 25.5264 97.3594 35.3608H87.2752C87.2674 35.3551 87.2611 35.3477 87.2568 35.339C87.2525 35.3304 87.2503 35.3209 87.2504 35.3112L83.8614 29.6768V27.3982C83.8614 27.2659 83.787 27.1915 83.6383 27.175H81.0428L80.1777 27.4505C80.1087 27.4872 80.0557 27.548 80.0289 27.6213L79.6845 28.9576L74.8876 29.6768V16.785C74.8952 16.7519 74.8922 16.7172 74.8788 16.686C74.8654 16.6548 74.8424 16.6287 74.8132 16.6114L73.3281 15.5093V13.2748C73.3288 13.2362 73.3201 13.198 73.3028 13.1634C73.2856 13.1289 73.2602 13.099 73.2289 13.0764L72.8597 12.856V9.96297C72.8597 9.83072 72.7853 9.75632 72.6366 9.73979H71.5978C71.5397 9.74308 71.4848 9.76765 71.4437 9.80882C71.4025 9.84998 71.3779 9.90485 71.3746 9.96297V13.0516H70.1155L62.8224 7.54111V5.41406C62.8265 5.38379 62.8235 5.35298 62.8137 5.32404C62.804 5.29509 62.7877 5.2688 62.7661 5.2472C62.7444 5.2256 62.7182 5.20928 62.6892 5.19951C62.6603 5.18974 62.6295 5.18679 62.5992 5.19088C62.4669 5.19088 62.3953 5.26527 62.376 5.41406V7.54111L49.0985 17.1569C49.062 17.1864 49.0356 17.2266 49.0233 17.2718C49.0109 17.3171 49.0131 17.3651 49.0296 17.409C49.0461 17.453 49.076 17.4906 49.115 17.5166C49.1541 17.5425 49.2004 17.5555 49.2473 17.5537H50.0738V29.6768L45.3045 28.9576L44.9326 27.6213C44.925 27.5823 44.9072 27.5459 44.8811 27.5159C44.855 27.4859 44.8214 27.4634 44.7838 27.4505L43.9434 27.175H41.348C41.2863 27.1747 41.2267 27.1974 41.1809 27.2386C41.135 27.2799 41.1062 27.3368 41.1 27.3982V29.674L37.7386 35.3085C37.7314 35.3147 37.7255 35.3223 37.7212 35.3308C37.717 35.3393 37.7144 35.3486 37.7138 35.3581H27.6406C27.9217 25.5127 31.3418 17.3195 37.9012 10.7785C44.4605 4.23757 52.6601 0.839432 62.5 0.584112M77.8522 35.9394L81.3128 29.9054C81.3306 29.8666 81.3391 29.8241 81.3376 29.7815V27.6048H83.4151V29.7319C83.4122 29.7747 83.4208 29.8174 83.4399 29.8558L86.8261 35.4683V42.8606H77.8522V35.9394ZM77.4803 35.6391H71.6226L74.8132 30.1286L79.9049 29.3599C79.9473 29.3513 79.9862 29.3306 80.017 29.3003C80.0479 29.2699 80.0692 29.2313 80.0785 29.1891L80.4504 27.8307L80.894 27.682V29.7319L77.483 35.6391M43.6872 29.9137L47.1478 35.9394V42.8606H38.1767V35.4765L41.5353 29.8779C41.5637 29.8423 41.5809 29.7992 41.5849 29.7539V27.6269H43.6596V29.8035C43.652 29.8246 43.6505 29.8475 43.6554 29.8695C43.6603 29.8914 43.6713 29.9116 43.6872 29.9275M44.106 29.7539V27.704L44.5523 27.8528L44.9215 29.2111C44.9259 29.2554 44.9457 29.2968 44.9774 29.328C45.0091 29.3592 45.0508 29.3783 45.0951 29.3819L50.1896 30.1507L53.3774 35.6611H47.4922L44.106 29.7401M49.9416 17.1073L62.5744 7.95991L69.6719 17.1073H49.9416ZM63.8363 8.87465L69.862 13.4484H69.8868V16.6527L63.8253 8.86638M124.606 69.0024H0.394V35.7493H37.7055V42.8689H19.7799C19.7487 42.8654 19.7171 42.8685 19.6872 42.8781C19.6573 42.8876 19.6298 42.9034 19.6064 42.9243C19.583 42.9453 19.5642 42.9709 19.5514 42.9996C19.5386 43.0282 19.532 43.0593 19.532 43.0907C19.532 43.1221 19.5386 43.1531 19.5514 43.1818C19.5642 43.2104 19.583 43.2361 19.6064 43.257C19.6298 43.2779 19.6573 43.2937 19.6872 43.3033C19.7171 43.3128 19.7487 43.3159 19.7799 43.3125H47.3682C47.517 43.3125 47.5941 43.2215 47.5941 43.092V36.1213H53.5262V42.8689H52.019V37.3308C52.0233 37.3007 52.0204 37.2699 52.0106 37.2411C52.0008 37.2122 51.9844 37.186 51.9628 37.1646C51.9411 37.1432 51.9147 37.1272 51.8857 37.1178C51.8568 37.1083 51.826 37.1058 51.7959 37.1104C51.6636 37.1104 51.5892 37.182 51.5727 37.3308V42.8689H50.3356V37.3308C50.3403 37.3008 50.3378 37.2701 50.3284 37.2412C50.319 37.2123 50.3029 37.1861 50.2814 37.1646C50.2599 37.1431 50.2337 37.127 50.2048 37.1176C50.1759 37.1082 50.1452 37.1057 50.1152 37.1104C49.9829 37.1104 49.9085 37.182 49.892 37.3308V42.8689H48.7899V37.3308C48.794 37.3009 48.7911 37.2705 48.7815 37.2418C48.7719 37.2132 48.7558 37.1872 48.7344 37.1659C48.7131 37.1445 48.6871 37.1284 48.6585 37.1188C48.6298 37.1092 48.5994 37.1063 48.5695 37.1104C48.4345 37.1104 48.3628 37.182 48.3435 37.3308V43.1031C48.347 43.1614 48.372 43.2163 48.4138 43.2571C48.4556 43.2978 48.5111 43.3215 48.5695 43.3235H58.0613C58.1194 43.3215 58.1746 43.2977 58.2159 43.2569C58.2573 43.216 58.2817 43.1611 58.2845 43.1031V34.0659C58.2811 34.008 58.2565 33.9535 58.2152 33.9128C58.174 33.8721 58.1192 33.8481 58.0613 33.8454H57.5681L57.6673 32.9803H58.1605C58.2927 32.9803 58.3671 32.9059 58.3837 32.7571V31.8066C58.384 31.7449 58.3613 31.6853 58.32 31.6394C58.2787 31.5936 58.2219 31.5648 58.1605 31.5586H55.4907C55.4293 31.5648 55.3724 31.5936 55.3311 31.6394C55.2899 31.6853 55.2672 31.7449 55.2675 31.8066V32.7461C55.284 32.8949 55.3584 32.9693 55.4907 32.9693H56.0086L56.1106 33.8344H55.689C55.6312 33.8371 55.5763 33.861 55.5351 33.9017C55.4939 33.9425 55.4692 33.997 55.4659 34.0548V42.8716H53.9835V35.8733C53.9798 35.8339 53.9611 35.7974 53.9312 35.7714L50.5753 29.8779V17.5537H69.9061V41.7558C69.9088 41.8141 69.9332 41.8693 69.9744 41.9106C70.0157 41.9519 70.071 41.9762 70.1293 41.9789C70.2781 41.9624 70.3525 41.888 70.3525 41.7558V13.498H71.3884V31.1508C71.4077 31.2996 71.4794 31.3712 71.6116 31.3712C71.6428 31.3752 71.6744 31.3724 71.7044 31.3631C71.7344 31.3538 71.7621 31.3382 71.7856 31.3173C71.8091 31.2964 71.8278 31.2708 71.8406 31.242C71.8533 31.2133 71.8598 31.1822 71.8596 31.1508L71.8375 17.3305V10.1834H72.4299V12.98C72.4315 13.014 72.441 13.0472 72.4578 13.0769C72.4745 13.1065 72.498 13.1319 72.5263 13.1508L72.8735 13.3988V23.6345C72.8791 23.6961 72.9077 23.7534 72.9537 23.7948C72.9997 23.8361 73.0596 23.8586 73.1215 23.8577C73.1795 23.8549 73.2344 23.8305 73.2753 23.7891C73.3161 23.7478 73.3399 23.6926 73.3419 23.6345V16.0686L74.444 16.9089V29.8586L71.033 35.7658C71.017 35.7975 71.0086 35.8324 71.0082 35.8678V42.8634H67.7653V34.0466C67.7626 33.989 67.7385 33.9345 67.6977 33.8937C67.657 33.8529 67.6025 33.8288 67.5449 33.8262H67.1481L67.2473 32.961H67.7432C67.8755 32.961 67.9471 32.8866 67.9664 32.7378V31.8066C67.9667 31.7449 67.944 31.6853 67.9028 31.6394C67.8615 31.5936 67.8046 31.5648 67.7432 31.5586H65.0706C65.0098 31.5654 64.9536 31.5945 64.9129 31.6403C64.8722 31.6861 64.8498 31.7453 64.8502 31.8066V32.7461C64.8668 32.8949 64.9412 32.9693 65.0706 32.9693H65.5666L65.663 33.8344H65.1946C65.1334 33.834 65.0741 33.8563 65.0284 33.897C64.9826 33.9377 64.9535 33.994 64.9467 34.0548V43.1031C64.9529 43.1642 64.9818 43.2208 65.0277 43.2616C65.0736 43.3024 65.1332 43.3245 65.1946 43.3235H76.3975C76.4586 43.3244 76.5178 43.3022 76.5633 43.2614C76.6088 43.2205 76.6371 43.164 76.6427 43.1031V37.3308C76.6429 37.2997 76.6365 37.2688 76.6239 37.2403C76.6113 37.2118 76.5928 37.1863 76.5696 37.1655C76.5464 37.1447 76.5191 37.129 76.4894 37.1195C76.4598 37.11 76.4284 37.1069 76.3975 37.1104C76.2625 37.1104 76.1908 37.182 76.1715 37.3308V42.8689H75.1108V37.3308C75.0915 37.182 75.0198 37.1104 74.8876 37.1104C74.8564 37.1065 74.8248 37.1093 74.7948 37.1186C74.7647 37.1279 74.7371 37.1435 74.7136 37.1644C74.6901 37.1852 74.6714 37.2109 74.6586 37.2396C74.6458 37.2683 74.6394 37.2994 74.6396 37.3308V42.8689H73.4438V37.3308C73.4246 37.182 73.3529 37.1104 73.2179 37.1104C73.187 37.1069 73.1556 37.11 73.1259 37.1195C73.0963 37.129 73.0689 37.1447 73.0458 37.1655C73.0226 37.1863 73.0041 37.2118 72.9915 37.2403C72.9789 37.2688 72.9725 37.2997 72.9727 37.3308V42.8689H71.4656V36.1213H77.3838V43.1031C77.3894 43.1644 77.4182 43.2214 77.4642 43.2623C77.5103 43.3033 77.5702 43.3251 77.6318 43.3235H105.223C105.372 43.3235 105.446 43.2326 105.446 43.1031C105.446 42.9736 105.372 42.8964 105.223 42.8799H87.2752V35.7493H124.606V69.0024ZM57.8547 34.3138V35.8953H56.9124C56.7636 35.9146 56.6919 35.9863 56.6919 36.1213C56.6919 36.2563 56.7636 36.3252 56.9124 36.3417H57.8547V38.3696H56.9124C56.7636 38.3861 56.6919 38.4605 56.6919 38.5927C56.6874 38.6228 56.6899 38.6536 56.6993 38.6826C56.7087 38.7116 56.7247 38.7379 56.7462 38.7596C56.7676 38.7813 56.7937 38.7977 56.8226 38.8074C56.8515 38.8172 56.8822 38.8201 56.9124 38.8159H57.8547V40.571H56.9124C56.8823 40.5663 56.8516 40.5687 56.8227 40.5782C56.7938 40.5876 56.7676 40.6037 56.7461 40.6252C56.7246 40.6466 56.7085 40.6729 56.6991 40.7018C56.6897 40.7307 56.6872 40.7614 56.6919 40.7914C56.6919 40.9237 56.7636 40.9981 56.9124 41.0146H57.8547V42.8689H55.948V34.3138H57.8547ZM56.2208 32.5367H55.7524V32.0408H57.9566V32.5367H57.4882C57.4333 32.5357 57.38 32.5551 57.3388 32.5913C57.2975 32.6275 57.2712 32.6778 57.265 32.7323L57.1163 33.8344H56.5652L56.4412 32.7323C56.4301 32.68 56.4023 32.6327 56.3621 32.5974C56.3219 32.5622 56.2714 32.5409 56.218 32.5367M66.3298 40.571H65.4151V38.8159H66.3298C66.361 38.819 66.3926 38.8155 66.4224 38.8057C66.4522 38.7959 66.4797 38.78 66.503 38.759C66.5263 38.738 66.545 38.7124 66.5579 38.6837C66.5708 38.6551 66.5775 38.6241 66.5778 38.5927C66.5722 38.5311 66.5436 38.4739 66.4976 38.4325C66.4516 38.3911 66.3917 38.3686 66.3298 38.3696H65.4151V36.3417H66.3298C66.3609 36.3452 66.3924 36.3421 66.4222 36.3326C66.452 36.3231 66.4795 36.3075 66.5029 36.2867C66.5263 36.2659 66.545 36.2405 66.5579 36.212C66.5708 36.1835 66.5776 36.1526 66.5778 36.1213C66.5723 36.0594 66.5437 36.0019 66.4978 35.96C66.4519 35.9182 66.3919 35.8951 66.3298 35.8953H65.4151V34.3138H67.3189V42.8689H65.4151V41.0146H66.3298C66.3917 41.0155 66.4516 40.9931 66.4976 40.9517C66.5436 40.9103 66.5722 40.853 66.5778 40.7914C66.578 40.76 66.5715 40.7289 66.5588 40.7002C66.546 40.6715 66.5273 40.6458 66.5038 40.6249C66.4803 40.6041 66.4526 40.5885 66.4226 40.5792C66.3926 40.5698 66.361 40.5671 66.3298 40.571ZM65.7787 32.5367H65.2856V32.0408H67.509V32.5367H67.0241C66.9709 32.5413 66.9206 32.5628 66.8805 32.5979C66.8403 32.6331 66.8125 32.6802 66.8009 32.7323L66.6797 33.8344H66.1287L66.0047 32.7323C65.9934 32.6796 65.9653 32.632 65.9245 32.5967C65.8837 32.5614 65.8326 32.5403 65.7787 32.5367Z" fill="#78596C"/>
<path d="M6.51608 50.5121C6.43612 50.3944 6.33413 50.2934 6.21576 50.2145C6.1 50.1419 5.97355 50.088 5.84105 50.0547C5.70928 50.0175 5.57294 49.9989 5.43602 49.9996C5.23764 49.9958 5.03981 50.0218 4.84916 50.0767C4.69776 50.1199 4.55574 50.1909 4.43036 50.2861C4.32531 50.3688 4.2405 50.4743 4.18239 50.5947C4.12529 50.7104 4.09604 50.8377 4.09697 50.9667C4.08987 51.1302 4.12598 51.2927 4.20167 51.4378C4.27167 51.5492 4.36584 51.6434 4.4772 51.7134C4.58613 51.7866 4.70486 51.8441 4.82987 51.8842L5.19907 52.0082L6.08902 52.2837C6.32322 52.3706 6.54991 52.4766 6.76681 52.6005C6.95821 52.7017 7.13216 52.8328 7.28204 52.989C7.41857 53.1377 7.52437 53.3118 7.59338 53.5015C7.66963 53.7192 7.70693 53.9487 7.70359 54.1793C7.70532 54.4451 7.64693 54.7079 7.53277 54.948C7.41867 55.1839 7.25628 55.3933 7.05611 55.5624C6.84224 55.7426 6.59643 55.8809 6.33148 55.9702C6.03366 56.0723 5.72054 56.1227 5.40572 56.119C5.10654 56.1257 4.80814 56.0858 4.52128 56.0005C4.29816 55.9343 4.089 55.8278 3.90411 55.6864C3.74417 55.564 3.60865 55.4125 3.5046 55.2401C3.40693 55.077 3.32835 54.9032 3.2704 54.7221H2.94528V53.9616H4.04738C4.03216 54.1979 4.06786 54.4347 4.15208 54.656C4.2203 54.7902 4.31946 54.9064 4.44138 54.9949C4.57542 55.089 4.72587 55.1572 4.88498 55.196C5.06484 55.2431 5.25011 55.2662 5.43602 55.2649C5.62207 55.2686 5.80768 55.2454 5.98707 55.196C6.1362 55.1548 6.27572 55.0846 6.39761 54.9893C6.50966 54.9024 6.59939 54.79 6.65935 54.6615C6.72195 54.525 6.75302 54.3762 6.75028 54.2261C6.75453 54.0663 6.7155 53.9083 6.63731 53.7688C6.56691 53.6455 6.47336 53.537 6.36179 53.4492C6.24306 53.3611 6.1134 53.2889 5.97605 53.2343C5.83554 53.1764 5.70053 53.1296 5.57103 53.0882L4.60394 52.8127C4.40092 52.7536 4.20574 52.6704 4.02258 52.5647C3.85159 52.4689 3.69866 52.344 3.57072 52.1955C3.4486 52.0459 3.35519 51.8749 3.2952 51.6913C3.22453 51.4753 3.19008 51.2491 3.19325 51.0218C3.1913 50.7731 3.24298 50.5268 3.34479 50.2999C3.44679 50.0742 3.59731 49.8739 3.78563 49.713C3.99548 49.5364 4.23792 49.4025 4.49924 49.319C4.8115 49.2183 5.13827 49.1699 5.46633 49.1758C5.68855 49.1737 5.91003 49.2015 6.12484 49.2584C6.31914 49.31 6.50481 49.3898 6.67588 49.4954C6.83753 49.5953 6.98334 49.7188 7.10846 49.8618C7.23422 50.0044 7.34075 50.1628 7.42531 50.333H7.75594V51.0934H6.6566C6.67087 50.8898 6.62179 50.6867 6.51608 50.5121Z" fill="#9D4858"/>
<path d="M8.36227 55.4385C8.36254 55.3636 8.37807 55.2896 8.40791 55.2209C8.43776 55.1522 8.48129 55.0903 8.53585 55.039C8.58819 54.9867 8.64987 54.9446 8.7177 54.915C8.78816 54.8845 8.86408 54.8685 8.94088 54.8682C9.01679 54.8684 9.09183 54.8844 9.16129 54.915C9.29723 54.9737 9.40563 55.0821 9.46437 55.2181C9.49615 55.2872 9.51215 55.3625 9.51121 55.4385C9.5125 55.5163 9.49651 55.5935 9.46437 55.6644C9.43416 55.7329 9.39324 55.7962 9.34314 55.8518C9.29174 55.9059 9.22987 55.949 9.16129 55.9785C9.0923 56.0106 9.01694 56.0266 8.94088 56.0254C8.86395 56.0263 8.78775 56.0104 8.7177 55.9785C8.64913 55.949 8.58726 55.9059 8.53585 55.8518C8.48316 55.7971 8.44029 55.7337 8.40911 55.6644C8.37834 55.5931 8.36241 55.5162 8.36227 55.4385Z" fill="#9D4858"/>
<path d="M17.3196 51.0407C17.1299 50.7142 16.8595 50.4419 16.5343 50.25C16.1989 50.0595 15.8178 49.9643 15.4322 49.9744C15.107 49.9703 14.7856 50.045 14.4955 50.1921C14.2154 50.3323 13.9677 50.5294 13.7681 50.7707C13.5628 51.0229 13.4033 51.3092 13.2969 51.6166C13.0664 52.3051 13.0732 53.0511 13.3162 53.7354C13.423 54.0324 13.5868 54.3056 13.7984 54.5399C14.0022 54.7583 14.2428 54.9392 14.5092 55.0744C14.7946 55.2206 15.1116 55.2944 15.4322 55.2893C15.8666 55.3022 16.2947 55.1841 16.6611 54.9504C17.0514 54.6711 17.3573 54.2898 17.5455 53.8483L18.3225 54.2148C18.1954 54.5572 18.0016 54.8709 17.7522 55.1378C17.4741 55.4413 17.1365 55.6843 16.7603 55.8514C16.3503 56.0377 15.9045 56.1317 15.4543 56.1269C15.0208 56.1322 14.5913 56.0439 14.1951 55.8679C13.8081 55.6945 13.4603 55.4442 13.1729 55.1323C12.8681 54.8076 12.6344 54.4228 12.4869 54.0026C12.3289 53.5606 12.2496 53.0944 12.2527 52.625C12.2492 52.1637 12.3285 51.7055 12.4869 51.2722C12.6356 50.8656 12.861 50.4915 13.1509 50.1701C13.4355 49.8553 13.7815 49.6022 14.1676 49.4261C14.5686 49.2424 15.0049 49.1483 15.446 49.1506C15.8073 49.1426 16.1669 49.2015 16.5068 49.3242C16.7776 49.4266 17.0327 49.5666 17.2645 49.7402C17.4688 49.8917 17.6538 50.0675 17.8155 50.2637H18.2839V51.049L17.3196 51.0407Z" fill="#9D4858"/>
<path d="M19.1049 49.0981H20.5431V51.8975H20.5679C20.6521 51.8117 20.7444 51.7342 20.8434 51.666C20.9502 51.5946 21.0626 51.5319 21.1796 51.4787C21.2986 51.4263 21.4222 51.3848 21.5488 51.3547C21.6788 51.3243 21.812 51.3095 21.9455 51.3106C22.1701 51.3069 22.3937 51.3414 22.6068 51.4126C22.7962 51.4755 22.9687 51.5811 23.111 51.7211C23.2566 51.8718 23.3659 52.0537 23.4306 52.2529C23.5218 52.4991 23.5702 52.7591 23.5739 53.0216V55.2258H24.2655V55.9863H22.0888V55.2258H22.717V53.1373C22.7259 52.9926 22.7062 52.8475 22.6589 52.7104C22.6116 52.5733 22.5377 52.4468 22.4415 52.3383C22.3396 52.2422 22.219 52.1682 22.0872 52.1208C21.9554 52.0734 21.8153 52.0536 21.6755 52.0628C21.4745 52.0645 21.2762 52.1096 21.0942 52.195C20.898 52.2864 20.7131 52.4001 20.5431 52.5339V55.2258H21.2044V55.9863H19.0415V55.2258H19.7303V49.8558H19.1049V49.0981Z" fill="#9D4858"/>
<path d="M25.803 53.7908C25.8017 53.9098 25.8109 54.0288 25.8305 54.1462C25.8489 54.2504 25.8766 54.3527 25.9132 54.452C26.0062 54.7277 26.191 54.963 26.4367 55.1188C26.6851 55.2709 26.972 55.3484 27.2632 55.342C27.4985 55.3429 27.7325 55.3085 27.9576 55.24C28.2061 55.165 28.4448 55.0605 28.6684 54.9287L28.9991 55.4797C28.7204 55.6756 28.4152 55.8306 28.0926 55.9399C27.7875 56.0394 27.4685 56.0897 27.1475 56.0886C26.8538 56.0922 26.562 56.0399 26.2879 55.9343C26.0294 55.8353 25.7967 55.6789 25.6073 55.477C25.4077 55.257 25.2557 54.9981 25.161 54.7165C25.0481 54.3745 24.994 54.0158 25.0012 53.6558C24.9986 53.3421 25.0442 53.0299 25.1362 52.73C25.2226 52.4524 25.3621 52.1941 25.5467 51.9695C25.7299 51.7501 25.9595 51.5741 26.219 51.4543C26.5134 51.3224 26.8333 51.2575 27.1558 51.2642C27.452 51.255 27.7469 51.3085 28.0209 51.4213C28.2383 51.5154 28.4314 51.6577 28.5858 51.8373C28.7322 52.0112 28.8444 52.2112 28.9164 52.4269C28.9917 52.646 29.0444 52.8722 29.0734 53.1019C29.09 53.2149 29.0982 53.3279 29.1038 53.4436C29.1093 53.5593 29.1038 53.6695 29.1038 53.7797L25.803 53.7908ZM27.0869 51.964C26.9161 51.9607 26.7461 51.9887 26.5855 52.0467C26.4489 52.0979 26.3249 52.1778 26.2218 52.2809C26.1183 52.389 26.0368 52.5163 25.9821 52.6556C25.9173 52.8139 25.8719 52.9795 25.8471 53.1488H28.2193C28.2103 52.9891 28.1825 52.8309 28.1367 52.6776C28.0986 52.5395 28.0319 52.4109 27.941 52.3002C27.8489 52.1917 27.7316 52.1076 27.5994 52.055C27.4366 51.9897 27.2622 51.9587 27.0869 51.964Z" fill="#9D4858"/>
<path d="M33.5065 52.3633H32.68V52.0878C32.5783 52.0887 32.4776 52.1073 32.3824 52.1429C32.2814 52.1822 32.1881 52.2391 32.1069 52.311C32.0145 52.3889 31.9362 52.4821 31.8754 52.5865C31.8048 52.7152 31.7563 52.8549 31.7322 52.9998V55.204H32.5091V55.9644H30.2388V55.226H30.8698V52.1677H30.2333V51.3962H31.6963V52.0272C31.7472 51.9305 31.8062 51.8383 31.8727 51.7516C31.9387 51.6726 32.0136 51.6015 32.0959 51.5395C32.1801 51.4791 32.273 51.4317 32.3714 51.399C32.4676 51.3745 32.567 51.3643 32.6662 51.3687H33.0988C33.2329 51.3687 33.3679 51.3687 33.5038 51.3687L33.5065 52.3633Z" fill="#9D4858"/>
<path d="M37.4713 55.2259H38.116V53.1374C38.1249 52.9926 38.1052 52.8475 38.0579 52.7104C38.0106 52.5733 37.9367 52.4469 37.8405 52.3384C37.7385 52.2424 37.6179 52.1685 37.4861 52.1211C37.3544 52.0737 37.2143 52.0539 37.0745 52.0628C36.874 52.0641 36.6763 52.1103 36.4959 52.1978C36.3 52.2907 36.1152 52.4053 35.9449 52.5395V55.2259H36.5896V55.9863H34.4571V55.2259H35.0935V52.1675H34.4571V51.3961H35.9146V51.9471C36.0137 51.8605 36.1176 51.7795 36.2259 51.7047C36.3353 51.628 36.4515 51.5616 36.5731 51.5063C36.6934 51.4479 36.8201 51.4035 36.9506 51.374C37.0857 51.3402 37.2245 51.3235 37.3638 51.3244C37.5884 51.3212 37.8119 51.3556 38.0251 51.4264C38.2146 51.4894 38.387 51.5949 38.5293 51.735C38.6749 51.8856 38.7842 52.0675 38.8489 52.2667C38.9285 52.515 38.9666 52.7747 38.9619 53.0354V55.2259H39.5984V55.9863H37.4603L37.4713 55.2259Z" fill="#9D4858"/>
<path d="M40.4581 51.3963H41.9514V55.2261H42.6402V55.9865H40.4663V55.2261H41.1193V52.1678H40.4581V51.3963ZM40.965 49.7735C40.9651 49.6984 40.9811 49.6242 41.0119 49.5558C41.0415 49.488 41.0835 49.4263 41.1358 49.3739C41.1887 49.321 41.2514 49.2788 41.3204 49.25C41.3908 49.219 41.4668 49.203 41.5436 49.2031C41.6195 49.2034 41.6946 49.2193 41.764 49.25C41.8319 49.2796 41.8935 49.3216 41.9459 49.3739C41.9965 49.4271 42.0375 49.4886 42.0671 49.5558C42.0992 49.6238 42.1152 49.6983 42.114 49.7735C42.1152 49.8513 42.0993 49.9285 42.0671 49.9994C42.0369 50.0679 41.996 50.1311 41.9459 50.1868C41.8945 50.2409 41.8326 50.284 41.764 50.3135C41.695 50.3455 41.6197 50.3615 41.5436 50.3603C41.4667 50.3616 41.3904 50.3456 41.3204 50.3135C41.2509 50.2843 41.1881 50.2412 41.1358 50.1868C41.084 50.1319 41.0421 50.0685 41.0119 49.9994C40.9811 49.928 40.9652 49.8512 40.965 49.7735Z" fill="#9D4858"/>
<path d="M46.087 55.5483C45.9161 55.7088 45.7219 55.8425 45.5112 55.9451C45.2866 56.0515 45.0405 56.1044 44.792 56.0994C44.5816 56.1025 44.3724 56.0671 44.1749 55.9947C43.9987 55.933 43.8353 55.8397 43.6927 55.7192C43.5594 55.5996 43.4516 55.4544 43.3758 55.2921C43.3012 55.1306 43.2626 54.9548 43.2629 54.7769C43.2605 54.6005 43.2894 54.4251 43.3483 54.2589C43.4014 54.1157 43.4798 53.9832 43.5797 53.8676C43.6757 53.7578 43.7893 53.6647 43.9159 53.5921C44.0433 53.5176 44.1781 53.4567 44.3181 53.4103C44.4573 53.3655 44.6003 53.3332 44.7452 53.3138C44.884 53.2946 45.0239 53.2845 45.164 53.2835C45.3762 53.2835 45.5525 53.2835 45.6985 53.3056C45.8307 53.3168 45.9623 53.3352 46.0925 53.3607V52.9667C46.0964 52.8228 46.072 52.6796 46.0209 52.5451C45.9785 52.4328 45.9106 52.3319 45.8225 52.2503C45.7355 52.1694 45.6307 52.11 45.5167 52.0767C45.3873 52.0367 45.2525 52.0171 45.1172 52.0189C44.9835 52.018 44.8499 52.0272 44.7176 52.0464C44.5978 52.0642 44.4791 52.0891 44.3622 52.1208C44.2589 52.1499 44.1577 52.1858 44.0591 52.2283C43.976 52.261 43.8965 52.3026 43.8222 52.3522L43.5467 51.7847C43.6613 51.7103 43.781 51.644 43.9048 51.5863C44.037 51.5254 44.1733 51.4738 44.3126 51.432C44.4566 51.3896 44.6028 51.3556 44.7507 51.33C44.8964 51.3059 45.0439 51.2939 45.1916 51.2942C45.4327 51.2906 45.6731 51.3221 45.9052 51.3879C46.109 51.4427 46.2975 51.5435 46.4562 51.6827C46.6079 51.8213 46.7241 51.9942 46.7951 52.1869C46.8804 52.4226 46.9215 52.672 46.9163 52.9226V55.2122H47.4261V55.9726H46.0953L46.087 55.5483ZM44.9849 55.4106C45.0944 55.41 45.2034 55.397 45.31 55.372C45.4172 55.3457 45.5215 55.3087 45.6214 55.2618C45.7184 55.2191 45.8107 55.1664 45.8969 55.1047C45.9719 55.0494 46.0412 54.9867 46.1035 54.9174V53.8814H45.1475C45.0006 53.8803 44.8542 53.8989 44.7121 53.9365C44.5904 53.9658 44.4753 54.0182 44.3732 54.0908C44.2795 54.1549 44.2028 54.241 44.1501 54.3415C44.0946 54.4477 44.0671 54.5662 44.0702 54.6859C44.0677 54.7952 44.0904 54.9036 44.1363 55.0028C44.1798 55.092 44.244 55.1695 44.3236 55.2287C44.4063 55.2905 44.4997 55.3363 44.5992 55.3637C44.7212 55.3972 44.8474 55.413 44.9739 55.4106H44.9849Z" fill="#9D4858"/>
<path d="M48.3077 49.0981H49.9223V49.8558V53.2779H50.7158L51.8179 52.1537H51.5424V51.396H53.281V52.1537H52.6996L51.322 53.592L52.8071 55.2258H53.3581V55.9863H52.391L50.5174 53.9391H49.914V55.2258H50.2998V55.9863H48.3408V55.2258H49.093V49.8558H48.3132L48.3077 49.0981Z" fill="#9D4858"/>
<path d="M60.9019 49.2749H63.0758V50.0354H62.4394V55.2262H63.0758V55.9867H60.9019V55.2262H61.5742V52.8181H57.6976V55.2262H58.3699V55.9867H56.196V55.2262H56.8324V50.0354H56.196V49.2749H58.3699V50.0354H57.6976V52.0632H61.5742V50.0354H60.9019V49.2749Z" fill="#9D4858"/>
<path d="M64.076 53.6832C64.0745 53.3458 64.1333 53.0108 64.2496 52.6941C64.3571 52.4052 64.5231 52.1417 64.7372 51.9199C64.9402 51.705 65.1875 51.5367 65.4619 51.4267C65.755 51.3082 66.0687 51.2492 66.3849 51.2531C66.7028 51.2493 67.0183 51.3082 67.3134 51.4267C67.5864 51.5367 67.8333 51.7029 68.038 51.9144C68.2428 52.1356 68.4019 52.3949 68.5064 52.6776C68.7264 53.3168 68.7264 54.0111 68.5064 54.6503C68.4013 54.9352 68.2423 55.1971 68.038 55.4218C67.834 55.6375 67.5872 55.8083 67.3134 55.9233C66.7146 56.162 66.0469 56.162 65.4481 55.9233C65.1743 55.8123 64.928 55.643 64.7262 55.4273C64.5214 55.2057 64.3631 54.9452 64.2606 54.6614C64.1415 54.3489 64.0789 54.0177 64.076 53.6832ZM64.9466 53.6832C64.9425 53.925 64.9807 54.1656 65.0596 54.3941C65.125 54.5964 65.2299 54.7837 65.3682 54.9451C65.4945 55.0899 65.6492 55.2072 65.8228 55.2895C65.9954 55.3699 66.1835 55.4113 66.3739 55.4108C66.5698 55.4157 66.7645 55.3769 66.9436 55.2973C67.1228 55.2178 67.2821 55.0993 67.4098 54.9507C67.5466 54.7886 67.6504 54.6014 67.7157 54.3996C67.7911 54.1684 67.8284 53.9264 67.8259 53.6832C67.829 53.4328 67.7917 53.1835 67.7157 52.9448C67.6509 52.7476 67.5479 52.565 67.4126 52.4076C67.287 52.265 67.1306 52.1528 66.9552 52.0797C66.7745 52.0049 66.5805 51.9674 66.3849 51.9695C66.1956 51.968 66.008 52.0055 65.8338 52.0797C65.6605 52.155 65.5054 52.2669 65.3792 52.4076C65.2402 52.5633 65.1351 52.7463 65.0706 52.9448C64.9909 53.1827 64.9527 53.4324 64.9577 53.6832H64.9466Z" fill="#9D4858"/>
<path d="M69.5618 51.3962H71.0193V51.9197C71.1206 51.8335 71.2264 51.7525 71.3361 51.6772C71.4462 51.6025 71.5623 51.537 71.6833 51.4816C71.8064 51.4299 71.9348 51.392 72.0663 51.3686C72.1996 51.3352 72.3366 51.3186 72.4741 51.3191C72.7695 51.3109 73.0625 51.3742 73.3282 51.5037C73.5692 51.6285 73.7628 51.8288 73.8792 52.074C73.9922 51.9748 74.1107 51.8784 74.2319 51.7847C74.3541 51.6935 74.4841 51.6133 74.6204 51.545C74.7543 51.475 74.8957 51.4205 75.0419 51.3824C75.1917 51.3402 75.3465 51.3189 75.5021 51.3191C75.7285 51.3154 75.9539 51.3498 76.1688 51.421C76.3651 51.4824 76.5431 51.5911 76.6873 51.7377C76.8315 51.8843 76.9373 52.0641 76.9954 52.2614C77.0726 52.5101 77.1098 52.7696 77.1056 53.0301V55.226H77.7421V55.9864H75.6012V55.226H76.246V53.1375C76.2549 52.9928 76.2351 52.8477 76.1879 52.7105C76.1406 52.5734 76.0667 52.447 75.9705 52.3385C75.8692 52.2424 75.7491 52.1682 75.6177 52.1208C75.4864 52.0734 75.3466 52.0537 75.2073 52.063C74.9974 52.0656 74.7907 52.1136 74.6011 52.2035C74.4045 52.2898 74.2253 52.4112 74.0721 52.5617V55.226H74.703V55.9864H72.5677V55.226H73.2152V53.1375C73.2241 52.9928 73.2044 52.8477 73.1571 52.7105C73.1098 52.5734 73.0359 52.447 72.9397 52.3385C72.8371 52.2426 72.716 52.1687 72.5838 52.1213C72.4516 52.074 72.3111 52.0541 72.171 52.063C71.9706 52.0654 71.7731 52.1114 71.5924 52.198C71.3967 52.2913 71.2119 52.4058 71.0413 52.5396V55.226H71.686V55.9864H69.548V55.226H70.1844V52.1677H69.548L69.5618 51.3962Z" fill="#9D4858"/>
<path d="M79.3951 53.7908C79.3947 53.91 79.4048 54.0289 79.4254 54.1462C79.4438 54.2504 79.4715 54.3528 79.5081 54.4521C79.6001 54.7283 79.7851 54.964 80.0316 55.1188C80.2758 55.269 80.5577 55.3464 80.8444 55.342C81.0805 55.3429 81.3155 55.3086 81.5415 55.2401C81.7893 55.1655 82.0271 55.061 82.2496 54.9287L82.583 55.4798C82.3043 55.6757 81.9991 55.8307 81.6765 55.9399C81.3713 56.0392 81.0523 56.0894 80.7314 56.0887C80.4377 56.0923 80.1459 56.0399 79.8718 55.9344C79.6133 55.8353 79.3806 55.6789 79.1912 55.477C78.9916 55.2571 78.8396 54.9982 78.7449 54.7166C78.631 54.3748 78.576 54.0161 78.5823 53.6558C78.5807 53.342 78.6272 53.0298 78.7201 52.7301C78.8056 52.4526 78.9441 52.1943 79.1279 51.9696C79.3125 51.7506 79.5429 51.5747 79.8029 51.4544C80.0972 51.3222 80.4172 51.2572 80.7397 51.2643C81.0351 51.2548 81.329 51.3083 81.6021 51.4213C81.8202 51.5154 82.0143 51.6577 82.1697 51.8374C82.3161 52.0112 82.4283 52.2113 82.5003 52.427C82.5743 52.6464 82.6269 52.8724 82.6573 53.102C82.6711 53.215 82.6821 53.3279 82.6849 53.4437C82.6877 53.5594 82.6849 53.6696 82.6849 53.7798L79.3951 53.7908ZM80.6818 51.9641C80.511 51.9608 80.3411 51.9888 80.1804 52.0468C80.0435 52.0973 79.9193 52.1772 79.8167 52.2809C79.7112 52.388 79.6286 52.5155 79.5742 52.6557C79.5119 52.8148 79.4667 52.9802 79.4392 53.1489H81.8142C81.8025 52.9894 81.7748 52.8316 81.7316 52.6777C81.6923 52.5401 81.6258 52.4117 81.536 52.3002C81.4427 52.1931 81.3257 52.1091 81.1943 52.055C81.0316 51.9897 80.8571 51.9588 80.6818 51.9641Z" fill="#9D4858"/>
<path d="M89.2727 50.5121C89.1887 50.3931 89.0819 50.292 88.9586 50.2145C88.8436 50.1425 88.7181 50.0886 88.5866 50.0547C88.454 50.0173 88.3167 49.9988 88.1789 49.9996C87.9805 49.9958 87.7827 50.0218 87.592 50.0768C87.4415 50.12 87.3003 50.191 87.176 50.2862C87.0701 50.3687 86.9844 50.4743 86.9252 50.5948C86.8698 50.711 86.8406 50.838 86.8398 50.9667C86.8327 51.1302 86.8688 51.2927 86.9445 51.4379C87.0139 51.5497 87.1082 51.644 87.22 51.7134C87.328 51.7866 87.4458 51.8441 87.57 51.8842L87.9392 52.0082L88.8319 52.2837C89.0755 52.3615 89.3124 52.4591 89.54 52.5758C89.7323 52.6754 89.9065 52.8068 90.0552 52.9643C90.1936 53.1125 90.3013 53.2867 90.372 53.4767C90.4473 53.6946 90.4837 53.9241 90.4795 54.1545C90.4812 54.4204 90.4228 54.6832 90.3087 54.9233C90.1956 55.1591 90.0341 55.3684 89.8348 55.5377C89.6195 55.7172 89.3729 55.8555 89.1074 55.9454C88.8096 56.0476 88.4964 56.0979 88.1816 56.0942C87.8833 56.1012 87.5858 56.0613 87.2999 55.9758C87.0766 55.9101 86.8673 55.8036 86.6828 55.6617C86.5221 55.54 86.3864 55.3884 86.2833 55.2153C86.1845 55.0528 86.1058 54.8788 86.0491 54.6973H85.7129V53.9369H86.815C86.7984 54.1732 86.8341 54.4103 86.9197 54.6312C86.984 54.764 87.0783 54.88 87.1952 54.9701C87.3286 55.0637 87.478 55.1319 87.6361 55.1712C87.8204 55.2193 88.0104 55.2425 88.2009 55.2401C88.3869 55.2435 88.5725 55.2203 88.752 55.1712C88.9011 55.1301 89.0406 55.0598 89.1625 54.9646C89.2702 54.8888 89.3596 54.79 89.4242 54.6753C89.4868 54.5388 89.5179 54.39 89.5152 54.24C89.5208 54.0799 89.4817 53.9215 89.4022 53.7826C89.3277 53.658 89.2294 53.5494 89.1129 53.463C88.9949 53.3738 88.8651 53.3015 88.7272 53.2481C88.5866 53.1902 88.4516 53.1434 88.3221 53.102L87.355 52.8265C87.1522 52.7669 86.9571 52.6837 86.7737 52.5785C86.6037 52.4836 86.4517 52.3595 86.3246 52.2121C86.1956 52.0649 86.0972 51.8935 86.0353 51.7079C85.9633 51.4922 85.9288 51.2657 85.9333 51.0384C85.9318 50.79 85.9825 50.544 86.0821 50.3165C86.1851 50.0907 86.3366 49.8903 86.5257 49.7296C86.7352 49.5523 86.9777 49.4184 87.2393 49.3356C87.5507 49.2351 87.8765 49.1867 88.2037 49.1923C88.4268 49.1902 88.6492 49.218 88.8649 49.275C89.0591 49.3271 89.2446 49.4069 89.416 49.5119C89.5771 49.6126 89.7228 49.736 89.8485 49.8784C89.9725 50.0217 90.0781 50.18 90.1626 50.3495H90.496V51.0935H89.4242C89.4352 50.8887 89.3823 50.6855 89.2727 50.5121Z" fill="#9D4858"/>
<path d="M91.904 53.7908C91.9035 53.91 91.9137 54.0289 91.9343 54.1462C91.9527 54.2504 91.9803 54.3528 92.0169 54.4521C92.1089 54.7283 92.294 54.964 92.5404 55.1188C92.7886 55.2716 93.0757 55.3491 93.367 55.342C93.6031 55.3429 93.8381 55.3086 94.0641 55.2401C94.3119 55.1655 94.5497 55.061 94.7722 54.9287L95.1056 55.4798C94.827 55.6757 94.5217 55.8307 94.1991 55.9399C93.8939 56.0392 93.5749 56.0894 93.254 56.0887C92.9603 56.0928 92.6684 56.0405 92.3944 55.9344C92.1359 55.8353 91.9032 55.6789 91.7139 55.477C91.5142 55.2571 91.3622 54.9982 91.2675 54.7166C91.1536 54.3748 91.0986 54.0161 91.1049 53.6558C91.1033 53.342 91.1498 53.0298 91.2427 52.7301C91.3282 52.4526 91.4667 52.1943 91.6505 51.9696C91.8351 51.7506 92.0655 51.5747 92.3255 51.4544C92.6198 51.3222 92.9398 51.2572 93.2623 51.2643C93.5577 51.2548 93.8517 51.3083 94.1247 51.4213C94.3428 51.5154 94.5369 51.6577 94.6923 51.8374C94.8388 52.0112 94.9509 52.2113 95.0229 52.427C95.097 52.6464 95.1496 52.8724 95.18 53.102C95.1937 53.215 95.2048 53.3279 95.2075 53.4437C95.2103 53.5594 95.2075 53.6696 95.2075 53.7798L91.904 53.7908ZM93.1907 51.9641C93.0199 51.9608 92.8499 51.9888 92.6892 52.0468C92.5523 52.0973 92.4282 52.1772 92.3255 52.2809C92.22 52.388 92.1375 52.5155 92.0831 52.6557C92.0195 52.8144 91.9742 52.9799 91.9481 53.1489H94.3231C94.3113 52.9894 94.2836 52.8316 94.2404 52.6777C94.2011 52.5401 94.1346 52.4117 94.0448 52.3002C93.9515 52.1931 93.8345 52.1091 93.7031 52.055C93.543 51.9908 93.3714 51.9599 93.1989 51.9641H93.1907Z" fill="#9D4858"/>
<path d="M99.6186 52.3634H98.7921V52.0879C98.577 52.0904 98.3699 52.1696 98.208 52.3111C98.1156 52.389 98.0373 52.4822 97.9765 52.5866C97.9061 52.7157 97.8568 52.8552 97.8305 52.9999V55.2041H98.6102V55.9646H96.3371V55.2261H96.9709V52.1678H96.3344V51.3964H97.7974V52.0273C97.8492 51.9305 97.9091 51.8384 97.9765 51.7518C98.0416 51.6728 98.1156 51.6017 98.1969 51.5396C98.2813 51.4794 98.3742 51.4321 98.4725 51.3991C98.5767 51.3721 98.6846 51.3619 98.7921 51.3688H99.2246C99.3606 51.3688 99.4956 51.3688 99.6297 51.3688L99.6186 52.3634Z" fill="#9D4858"/>
<path d="M100.217 51.3965H101.798V52.1542H101.368L102.501 55.3089L103.603 52.1542H103.327V51.3965H104.776V52.1542H104.382L102.884 56.0528H102.057L100.564 52.1624H100.203L100.217 51.3965Z" fill="#9D4858"/>
<path d="M105.405 51.3963H106.898V55.2261H107.587V55.9866H105.405V55.2261H106.06V52.1678H105.405V51.3963ZM105.912 49.7735C105.912 49.6984 105.928 49.6242 105.958 49.5558C105.989 49.4885 106.031 49.427 106.082 49.374C106.135 49.321 106.198 49.2789 106.267 49.25C106.338 49.2186 106.415 49.2026 106.493 49.2031C106.568 49.2038 106.642 49.2197 106.711 49.25C106.778 49.2796 106.84 49.3216 106.892 49.374C106.943 49.4277 106.985 49.4891 107.016 49.5558C107.046 49.6244 107.061 49.6986 107.061 49.7735C107.061 49.851 107.046 49.9279 107.016 49.9994C106.984 50.0674 106.943 50.1305 106.892 50.1868C106.841 50.2409 106.779 50.284 106.711 50.3135C106.643 50.3453 106.568 50.3613 106.493 50.3603C106.415 50.3619 106.338 50.3459 106.267 50.3135C106.197 50.2843 106.135 50.2412 106.082 50.1868C106.03 50.1289 105.987 50.0629 105.956 49.9911C105.923 49.9229 105.904 49.849 105.901 49.7735H105.912Z" fill="#9D4858"/>
<path d="M111.637 52.6139C111.53 52.4103 111.367 52.2419 111.166 52.129C110.962 52.0219 110.735 51.9688 110.505 51.9747C110.319 51.9733 110.135 52.0138 109.968 52.0932C109.799 52.1741 109.648 52.2896 109.527 52.4321C109.396 52.5916 109.296 52.7737 109.232 52.9693C109.156 53.1965 109.118 53.435 109.122 53.6747C109.118 53.9108 109.155 54.1457 109.232 54.369C109.298 54.5629 109.402 54.7418 109.538 54.8953C109.659 55.0377 109.809 55.1524 109.979 55.2314C110.145 55.311 110.328 55.3516 110.513 55.3499C110.774 55.3561 111.031 55.2841 111.252 55.1432C111.472 54.9935 111.645 54.7842 111.75 54.5398L112.431 54.876C112.346 55.06 112.237 55.2315 112.106 55.3857C111.977 55.5335 111.829 55.6624 111.665 55.7687C111.495 55.8782 111.309 55.961 111.114 56.0139C110.912 56.0721 110.704 56.1009 110.494 56.0993C110.191 56.1031 109.89 56.042 109.612 55.9202C109.346 55.8053 109.109 55.6343 108.915 55.4188C108.713 55.1952 108.558 54.9339 108.458 54.65C108.346 54.3372 108.291 54.0069 108.295 53.6747C108.291 53.3417 108.349 53.0109 108.466 52.6993C108.573 52.415 108.734 52.154 108.94 51.9306C109.138 51.7181 109.377 51.5475 109.642 51.4292C109.913 51.3095 110.206 51.2485 110.502 51.2501C110.784 51.2479 111.065 51.2983 111.329 51.3988C111.584 51.5003 111.816 51.6553 112.006 51.8535H112.469V52.6139H111.637Z" fill="#9D4858"/>
<path d="M114.051 53.7908C114.049 53.9099 114.059 54.0288 114.078 54.1462C114.097 54.2504 114.124 54.3528 114.161 54.4521C114.253 54.7283 114.438 54.964 114.684 55.1188C114.928 55.269 115.21 55.3464 115.497 55.342C115.733 55.3429 115.968 55.3086 116.194 55.2401C116.442 55.1655 116.68 55.061 116.902 54.9287L117.236 55.4798C116.957 55.6757 116.652 55.8307 116.329 55.9399C116.024 56.0392 115.705 56.0894 115.384 56.0887C115.09 56.0923 114.799 56.0399 114.524 55.9344C114.266 55.8353 114.033 55.6789 113.844 55.477C113.644 55.2571 113.492 54.9982 113.398 54.7166C113.284 54.3748 113.229 54.0161 113.235 53.6558C113.233 53.342 113.28 53.0298 113.373 52.7301C113.458 52.452 113.598 52.1935 113.783 51.9696C113.966 51.7502 114.196 51.5742 114.456 51.4544C114.75 51.3222 115.07 51.2572 115.392 51.2643C115.688 51.2548 115.982 51.3083 116.255 51.4213C116.473 51.5154 116.667 51.6577 116.822 51.8374C116.969 52.0112 117.081 52.2113 117.153 52.427C117.227 52.6464 117.28 52.8724 117.31 53.102C117.324 53.215 117.335 53.3279 117.338 53.4437C117.34 53.5594 117.338 53.6696 117.338 53.7798L114.051 53.7908ZM115.335 51.9641C115.164 51.9608 114.994 51.9888 114.833 52.0468C114.696 52.0973 114.572 52.1772 114.469 52.2809C114.365 52.3889 114.283 52.5162 114.227 52.6557C114.164 52.8145 114.12 52.98 114.095 53.1489H116.467C116.455 52.9894 116.428 52.8316 116.384 52.6777C116.346 52.5396 116.28 52.411 116.189 52.3002C116.096 52.1925 115.979 52.1084 115.847 52.055C115.681 51.9882 115.502 51.9572 115.324 51.9641H115.335Z" fill="#9D4858"/>
<path d="M121.019 52.3084C120.962 52.2211 120.886 52.1483 120.796 52.0963C120.702 52.0397 120.599 51.9988 120.492 51.975C120.385 51.9513 120.275 51.9393 120.165 51.9392C120.055 51.9386 119.946 51.9516 119.839 51.9778C119.749 52.0017 119.663 52.0409 119.586 52.0935C119.517 52.1401 119.46 52.2024 119.421 52.2753C119.38 52.3495 119.359 52.4331 119.36 52.5178C119.357 52.5849 119.367 52.6519 119.392 52.7146C119.416 52.7772 119.453 52.8341 119.501 52.8815C119.637 52.9967 119.795 53.0821 119.966 53.1322L120.845 53.4408C121.165 53.5306 121.452 53.7104 121.672 53.9588C121.847 54.1814 121.938 54.4582 121.931 54.7413C121.933 54.9318 121.891 55.1203 121.809 55.2923C121.73 55.4615 121.612 55.6096 121.465 55.7249C121.3 55.8505 121.113 55.9439 120.914 56.0004C120.688 56.069 120.453 56.1025 120.217 56.0996C119.917 56.1115 119.619 56.052 119.346 55.926C119.137 55.8227 118.958 55.6659 118.828 55.4714H118.371V54.711H119.286C119.279 54.8214 119.304 54.9313 119.357 55.0286C119.409 55.1259 119.488 55.2067 119.583 55.262C119.677 55.322 119.78 55.3641 119.889 55.386C120.002 55.4135 120.117 55.4274 120.233 55.4274C120.346 55.4281 120.458 55.4133 120.567 55.3833C120.665 55.3581 120.758 55.3161 120.842 55.2593C120.921 55.21 120.987 55.143 121.035 55.0637C121.083 54.9857 121.108 54.896 121.107 54.8047C121.11 54.665 121.059 54.5295 120.964 54.4272C120.824 54.3001 120.657 54.206 120.476 54.1517L119.6 53.8238C119.299 53.7328 119.026 53.5669 118.806 53.3416C118.631 53.1372 118.539 52.8749 118.547 52.606C118.545 52.4166 118.582 52.2288 118.657 52.0549C118.735 51.8946 118.848 51.7541 118.988 51.6444C119.135 51.5191 119.305 51.4254 119.49 51.3689C119.707 51.2971 119.935 51.2626 120.165 51.2669C120.447 51.257 120.728 51.3038 120.991 51.4047C121.228 51.5064 121.434 51.6678 121.589 51.8731H122.016V52.6308H121.11C121.114 52.5165 121.082 52.4038 121.019 52.3084Z" fill="#9D4858"/>
</svg>
