<svg width="27" height="39" viewBox="0 0 27 39" fill="none" xmlns="http://www.w3.org/2000/svg">
<path d="M9.10677 15.8715L8.67335 18.3966C8.55903 19.0637 8.82913 19.7258 9.37687 20.1228C9.68591 20.3464 10.0465 20.4607 10.4095 20.4607C10.6909 20.4607 10.9723 20.3929 11.2324 20.2559L13.5 19.0625L15.7663 20.2534C16.3656 20.5688 17.0754 20.5185 17.6244 20.1228C18.1721 19.7258 18.4409 19.0637 18.3279 18.3954L17.8945 15.8715L19.7274 14.0838C20.2136 13.6127 20.3844 12.9193 20.1759 12.276C19.9661 11.6316 19.4196 11.1705 18.7512 11.075L16.2148 10.7069L15.0829 8.40921L15.0816 8.40795C14.7826 7.80117 14.1759 7.42554 13.5 7.42554C12.8241 7.42554 12.2173 7.80242 11.9171 8.40921L10.7852 10.7069L8.25124 11.075C7.58038 11.1705 7.0339 11.6316 6.8241 12.276C6.61556 12.9205 6.78767 13.6127 7.27134 14.0826L9.10677 15.8715ZM11.6985 12.859C12.0666 12.8049 12.3844 12.5738 12.5502 12.2409L13.5 10.3137L14.4497 12.2396C14.6156 12.5738 14.9334 12.8037 15.3015 12.8577L17.4271 13.1667L15.8894 14.6655C15.6218 14.9255 15.5 15.2999 15.5641 15.6667L15.9271 17.7836L14.0251 16.7836C13.696 16.6115 13.3015 16.6115 12.9723 16.7836L11.0703 17.7836L11.4334 15.6667C11.4975 15.2999 11.3756 14.9255 11.108 14.6655L9.57033 13.1667L11.6985 12.859Z" fill="#9D4858"/>
<path d="M27 14.2811C27 6.83766 20.9435 0.781128 13.5 0.781128C6.05653 0.781128 0 6.83766 0 14.2811C0 18.5148 1.96357 22.2949 5.02261 24.7723V36.4256C5.02261 37.0851 5.38317 37.6894 5.96357 38.0035C6.54523 38.315 7.24498 38.2887 7.79774 37.9243L13.5 34.1794L19.2023 37.9231C19.5 38.1191 19.843 38.2171 20.1847 38.2171C20.4761 38.2171 20.7688 38.1455 21.0364 38.0022C21.6168 37.6882 21.9774 37.0851 21.9774 36.4243V24.7711C25.0364 22.2949 27 18.5148 27 14.2811ZM2.26256 14.2811C2.26256 8.08389 7.30276 3.04243 13.5 3.04243C19.6972 3.04243 24.7374 8.08389 24.7374 14.2799C24.7374 20.4759 19.6972 25.5186 13.5 25.5186C7.30276 25.5186 2.26256 20.4771 2.26256 14.2811ZM19.7148 35.555L14.4824 32.1191C13.8857 31.7284 13.1143 31.7271 12.5163 32.1203L7.28518 35.555V26.2522C9.14824 27.2233 11.2588 27.7811 13.5 27.7811C15.7412 27.7811 17.853 27.2233 19.7148 26.2522V35.555Z" fill="#9D4858"/>
</svg>
