<svg width="20" height="20" viewBox="0 0 20 20" fill="none" xmlns="http://www.w3.org/2000/svg">
<path d="M12.5 18.9583H7.50002C2.97502 18.9583 1.04169 17.025 1.04169 12.5V7.49999C1.04169 2.97499 2.97502 1.04166 7.50002 1.04166H11.6667C12.0084 1.04166 12.2917 1.32499 12.2917 1.66666C12.2917 2.00832 12.0084 2.29166 11.6667 2.29166H7.50002C3.65835 2.29166 2.29169 3.65832 2.29169 7.49999V12.5C2.29169 16.3417 3.65835 17.7083 7.50002 17.7083H12.5C16.3417 17.7083 17.7084 16.3417 17.7084 12.5V8.33332C17.7084 7.99166 17.9917 7.70832 18.3334 7.70832C18.675 7.70832 18.9584 7.99166 18.9584 8.33332V12.5C18.9584 17.025 17.025 18.9583 12.5 18.9583Z" fill="#513647" stroke="#513647" stroke-width="0.5"/>
<path d="M18.3334 8.95831H15C12.15 8.95831 11.0417 7.84998 11.0417 4.99998V1.66665C11.0417 1.41665 11.1917 1.18331 11.425 1.09165C11.6584 0.991647 11.925 1.04998 12.1084 1.22498L18.775 7.89165C18.95 8.06665 19.0084 8.34165 18.9084 8.57498C18.8084 8.80831 18.5834 8.95831 18.3334 8.95831ZM12.2917 3.17498V4.99998C12.2917 7.14998 12.85 7.70831 15 7.70831H16.825L12.2917 3.17498Z" fill="#513647" stroke="#513647" stroke-width="0.5"/>
<path d="M10.8334 11.4583H5.83337C5.49171 11.4583 5.20837 11.175 5.20837 10.8333C5.20837 10.4916 5.49171 10.2083 5.83337 10.2083H10.8334C11.175 10.2083 11.4584 10.4916 11.4584 10.8333C11.4584 11.175 11.175 11.4583 10.8334 11.4583Z" fill="#513647" stroke="#513647" stroke-width="0.5"/>
<path d="M9.16671 14.7917H5.83337C5.49171 14.7917 5.20837 14.5083 5.20837 14.1667C5.20837 13.825 5.49171 13.5417 5.83337 13.5417H9.16671C9.50837 13.5417 9.79171 13.825 9.79171 14.1667C9.79171 14.5083 9.50837 14.7917 9.16671 14.7917Z" fill="#513647" stroke="#513647" stroke-width="0.5"/>
</svg>
