<svg width="21" height="20" viewBox="0 0 21 20" fill="none" xmlns="http://www.w3.org/2000/svg">
<path d="M9.98954 12.4583L8.44788 14C8.12288 14.325 7.60621 14.325 7.27288 14.0083C7.18121 13.9167 7.08954 13.8333 6.99788 13.7417C6.13954 12.875 5.36454 11.9667 4.67288 11.0167C3.98954 10.0667 3.43954 9.11667 3.03954 8.175C2.64788 7.225 2.44788 6.31667 2.44788 5.45C2.44788 4.88333 2.54788 4.34167 2.74788 3.84167C2.94788 3.33333 3.26454 2.86667 3.70621 2.45C4.23954 1.925 4.82288 1.66667 5.43954 1.66667C5.67288 1.66667 5.90621 1.71667 6.11454 1.81667C6.33121 1.91667 6.52288 2.06667 6.67288 2.28333L8.60621 5.00833C8.75621 5.21667 8.86454 5.40833 8.93954 5.59167C9.01454 5.76667 9.05621 5.94167 9.05621 6.1C9.05621 6.3 8.99788 6.5 8.88121 6.69167C8.77288 6.88333 8.61454 7.08333 8.41454 7.28333L7.78121 7.94167C7.68954 8.03333 7.64788 8.14167 7.64788 8.275C7.64788 8.34167 7.65621 8.4 7.67288 8.46667C7.69788 8.53333 7.72288 8.58333 7.73954 8.63333C7.88954 8.90833 8.14788 9.26667 8.51454 9.7C8.88954 10.1333 9.28954 10.575 9.72288 11.0167C9.80621 11.1 9.89788 11.1833 9.98121 11.2667C10.3145 11.5917 10.3229 12.125 9.98954 12.4583Z" fill="white"/>
<path d="M19.0896 15.275C19.0896 15.5083 19.0479 15.75 18.9646 15.9833C18.9396 16.05 18.9146 16.1167 18.8812 16.1833C18.7396 16.4833 18.5563 16.7667 18.3146 17.0333C17.9062 17.4833 17.4562 17.8083 16.9479 18.0167C16.9396 18.0167 16.9313 18.025 16.9229 18.025C16.4313 18.225 15.8979 18.3333 15.3229 18.3333C14.4729 18.3333 13.5646 18.1333 12.6062 17.725C11.6479 17.3167 10.6896 16.7667 9.73958 16.075C9.41458 15.8333 9.08958 15.5917 8.78125 15.3333L11.5062 12.6083C11.7396 12.7833 11.9479 12.9167 12.1229 13.0083C12.1646 13.025 12.2146 13.05 12.2729 13.075C12.3396 13.1 12.4062 13.1083 12.4812 13.1083C12.6229 13.1083 12.7312 13.0583 12.8229 12.9667L13.4562 12.3417C13.6646 12.1333 13.8646 11.975 14.0562 11.875C14.2479 11.7583 14.4396 11.7 14.6479 11.7C14.8062 11.7 14.9729 11.7333 15.1562 11.8083C15.3396 11.8833 15.5312 11.9917 15.7396 12.1333L18.4979 14.0917C18.7146 14.2417 18.8646 14.4167 18.9562 14.625C19.0396 14.8333 19.0896 15.0417 19.0896 15.275Z" fill="white"/>
</svg>
