<svg width="50" height="36" viewBox="0 0 50 36" fill="none" xmlns="http://www.w3.org/2000/svg">
<path d="M26.7008 16.651H11.1678C8.46188 16.651 6.26068 14.4497 6.26068 11.7441V8.72775H4.34158C3.32598 8.72775 2.49988 7.90165 2.49988 6.88615V3.72685C2.49988 2.71135 3.32598 1.88525 4.34158 1.88525H33.5271C34.5427 1.88525 35.3688 2.71125 35.3688 3.72685V6.88615C35.3688 7.90165 34.5428 8.72775 33.5271 8.72775H31.6077V11.7441C31.6076 14.4497 29.4064 16.651 26.7008 16.651ZM4.34158 3.66295C4.30628 3.66295 4.27768 3.69155 4.27768 3.72685V6.88615C4.27768 6.92145 4.30628 6.95005 4.34158 6.95005H7.14958C7.64058 6.95005 8.03848 7.34785 8.03848 7.83885V11.7441C8.03848 13.4694 9.44238 14.8732 11.168 14.8732H26.701C28.4263 14.8732 29.8301 13.4694 29.8301 11.7441V7.83885C29.8301 7.34785 30.2279 6.95005 30.719 6.95005H33.5273C33.5626 6.95005 33.5912 6.92145 33.5912 6.88615V3.72685C33.5912 3.69155 33.5626 3.66295 33.5273 3.66295H4.34158Z" fill="#9D4858" stroke="#9D4858" stroke-width="0.55"/>
<path d="M25.7416 32.6979C17.7441 32.6979 11.2378 26.1917 11.2378 18.1941V15.7619C11.2378 15.2709 11.6356 14.873 12.1266 14.873H25.7416C26.2326 14.873 26.6305 15.2709 26.6305 15.7619V31.809C26.6305 32.3001 26.2326 32.6979 25.7416 32.6979ZM13.0155 16.6509V18.1942C13.0155 24.9126 18.249 30.4316 24.8528 30.8897V16.6509H13.0155Z" fill="#9D4858" stroke="#9D4858" stroke-width="0.55"/>
<path d="M35.7792 32.698H25.7416C25.2506 32.698 24.8527 32.3002 24.8527 31.8092V19.9745C24.8527 19.4835 25.2505 19.0856 25.7416 19.0856H35.7792C36.2702 19.0856 36.6681 19.4834 36.6681 19.9745V31.8092C36.6681 32.3002 36.2703 32.698 35.7792 32.698ZM26.6305 30.9204H34.8904V20.8634H26.6305V30.9204Z" fill="#9D4858" stroke="#9D4858" stroke-width="0.55"/>
<path d="M46.611 32.698H43.1257C42.6347 32.698 42.2368 32.3002 42.2368 31.8092V19.9745C42.2368 19.4835 42.6347 19.0856 43.1257 19.0856H46.611C47.102 19.0856 47.4999 19.4834 47.4999 19.9745C47.4999 20.4655 47.1021 20.8634 46.611 20.8634H44.0145V30.9204H46.611C47.102 30.9204 47.4999 31.3182 47.4999 31.8093C47.4999 32.3002 47.1021 32.698 46.611 32.698Z" fill="#9D4858" stroke="#9D4858" stroke-width="0.55"/>
<path d="M43.126 34.1147H35.7792C35.2882 34.1147 34.8903 33.7169 34.8903 33.2258V18.558C34.8903 18.067 35.2881 17.6691 35.7792 17.6691H43.126C43.617 17.6691 44.0148 18.0669 44.0148 18.558V33.2258C44.0148 33.7168 43.617 34.1147 43.126 34.1147ZM36.6681 32.3369H42.2372V19.4468H36.6681V32.3369Z" fill="#9D4858" stroke="#9D4858" stroke-width="0.55"/>
<path d="M30.7188 8.72777H17.528C17.037 8.72777 16.6391 8.32997 16.6391 7.83887C16.6391 7.34787 17.0369 6.95007 17.528 6.95007H30.7188C31.2098 6.95007 31.6077 7.34787 31.6077 7.83887C31.6076 8.32997 31.2097 8.72777 30.7188 8.72777Z" fill="#9D4858" stroke="#9D4858" stroke-width="0.55"/>
<path d="M19.2331 8.72777H7.14948C6.65848 8.72777 6.26068 8.32997 6.26068 7.83887C6.26068 7.34787 6.65848 6.95007 7.14948 6.95007H19.2331C19.7241 6.95007 20.122 7.34787 20.122 7.83887C20.122 8.32997 19.7242 8.72777 19.2331 8.72777Z" fill="#9D4858" stroke="#9D4858" stroke-width="0.55"/>
</svg>
