<svg width="89" height="15" viewBox="0 0 89 15" fill="none" xmlns="http://www.w3.org/2000/svg">
<path d="M8.22908 11.5549L11.5336 10.7175L12.9142 14.9726L8.22908 11.5549ZM15.834 6.05496H10.0171L8.22908 0.577637L6.44103 6.05496H0.624207L5.33199 9.45L3.54394 14.9273L8.25172 11.5323L11.1488 9.45L15.834 6.05496Z" fill="#FF6B00"/>
<path d="M26.5042 11.5549L29.8087 10.7175L31.1894 14.9726L26.5042 11.5549ZM34.1091 6.05496H28.2923L26.5042 0.577637L24.7162 6.05496H18.8994L23.6071 9.45L21.8191 14.9273L26.5269 11.5323L29.424 9.45L34.1091 6.05496Z" fill="#FF6B00"/>
<path d="M44.7794 11.5549L48.0839 10.7175L49.4646 14.9726L44.7794 11.5549ZM52.3843 6.05496H46.5675L44.7794 0.577637L42.9914 6.05496H37.1745L41.8823 9.45L40.0943 14.9273L44.802 11.5323L47.6991 9.45L52.3843 6.05496Z" fill="#FF6B00"/>
<path d="M63.0546 11.5549L66.3591 10.7175L67.7397 14.9726L63.0546 11.5549ZM70.6594 6.05496H64.8426L63.0546 0.577637L61.2665 6.05496H55.4497L60.1575 9.45L58.3694 14.9273L63.0772 11.5323L65.9743 9.45L70.6594 6.05496Z" fill="#FF6B00"/>
<path d="M81.3297 11.5549L84.6342 10.7175L86.0149 14.9726L81.3297 11.5549ZM88.9346 6.05496H83.1178L81.3297 0.577637L79.5417 6.05496H73.7249L78.4326 9.45L76.6446 14.9273L81.3524 11.5323L84.2495 9.45L88.9346 6.05496Z" fill="#FF6B00"/>
</svg>
