<svg width="31" height="35" viewBox="0 0 31 35" fill="none" xmlns="http://www.w3.org/2000/svg">
<path d="M25.563 20.838H17.8968C18.5294 18.9399 18.8656 17.3425 18.921 15.9798C19.0518 12.7661 17.5344 11.4938 16.2385 10.9923C16.1842 10.9713 16.1278 10.9561 16.0703 10.947C15.0661 10.7886 14.7086 11.261 14.4718 11.795L14.4406 11.8648C14.4059 11.9415 14.3833 12.023 14.3735 12.1065C14.1708 13.843 13.6255 15.5221 12.7692 17.0464C11.9129 18.5707 10.7626 19.9099 9.38501 20.9864C9.24054 20.7567 9.04021 20.5674 8.80274 20.4361C8.56526 20.3048 8.29839 20.2359 8.02705 20.2358H2.36491C1.93923 20.2362 1.53113 20.4056 1.23013 20.7065C0.929132 21.0075 0.759824 21.4157 0.759354 21.8413V33.3945C0.759824 33.8202 0.929132 34.2283 1.23013 34.5293C1.53113 34.8303 1.93923 34.9996 2.36491 35H8.02705C8.35643 34.9997 8.67775 34.8981 8.94757 34.7092C9.21739 34.5203 9.4227 34.2531 9.53574 33.9437C10.159 34.4383 10.8842 34.7882 11.6592 34.9683C11.7173 34.9818 11.7768 34.989 11.8365 34.9897C12.4782 34.9965 13.2432 35 14.1254 35C15.0054 35 16.002 34.9965 17.1078 34.9897H24.3298C24.7521 34.9898 25.1668 34.8778 25.5315 34.665C25.8962 34.4523 26.1979 34.1464 26.4056 33.7788C26.6133 33.4112 26.7197 32.995 26.7137 32.5728C26.7078 32.1506 26.5898 31.7375 26.3718 31.3759C26.8538 31.0106 27.1788 30.4757 27.2808 29.8796C27.3827 29.2835 27.2541 28.671 26.921 28.1663C27.3888 27.7697 27.6856 27.2078 27.7494 26.5978C27.8131 25.9878 27.639 25.3767 27.2633 24.8919C27.5926 24.5569 27.8155 24.1322 27.9041 23.6709C27.9928 23.2097 27.9431 22.7326 27.7615 22.2995C27.5798 21.8664 27.2742 21.4966 26.8831 21.2366C26.4919 20.9766 26.0327 20.838 25.563 20.8382V20.838ZM7.99198 33.3594H2.40018V21.8763H7.99198V33.3594ZM20.7647 25.6064H25.378C25.5739 25.6082 25.7612 25.6874 25.8992 25.8267C26.0371 25.9659 26.1144 26.154 26.1144 26.3499C26.1144 26.5459 26.0371 26.734 25.8992 26.8732C25.7612 27.0125 25.5739 27.0916 25.378 27.0935H21.4224C21.2048 27.0935 20.9962 27.1799 20.8424 27.3338C20.6885 27.4876 20.6021 27.6963 20.6021 27.9138C20.6021 28.1314 20.6885 28.34 20.8424 28.4939C20.9962 28.6477 21.2048 28.7341 21.4224 28.7341H24.9307C25.1267 28.736 25.314 28.8152 25.4519 28.9544C25.5898 29.0937 25.6672 29.2817 25.6672 29.4777C25.6672 29.6737 25.5898 29.8618 25.4519 30.001C25.314 30.1403 25.1267 30.2194 24.9307 30.2213H21.9989C21.7813 30.2213 21.5727 30.3077 21.4188 30.4616C21.265 30.6154 21.1786 30.8241 21.1786 31.0416C21.1786 31.2592 21.265 31.4678 21.4188 31.6217C21.5727 31.7755 21.7813 31.8619 21.9989 31.8619H24.3299C24.5259 31.8638 24.7132 31.943 24.8511 32.0822C24.9891 32.2215 25.0664 32.4095 25.0664 32.6055C25.0664 32.8015 24.9891 32.9895 24.8511 33.1288C24.7132 33.268 24.5259 33.3472 24.3299 33.3491H17.1027C14.9466 33.3624 13.2131 33.3628 11.9484 33.3501C11.4634 33.2259 11.0084 33.0053 10.6106 32.7014C10.2127 32.3975 9.88021 32.0166 9.63281 31.5813V22.8389C11.3363 21.6745 12.7783 20.1678 13.8671 18.415C14.9558 16.6622 15.6672 14.7018 15.9561 12.6587C16.5094 12.9476 17.3723 13.6919 17.2822 15.9131C17.2234 17.3581 16.794 19.1443 15.9697 21.3738C15.9239 21.4978 15.9087 21.631 15.9254 21.7622C15.9422 21.8934 15.9904 22.0185 16.066 22.127C16.1415 22.2356 16.2422 22.3242 16.3594 22.3854C16.4766 22.4466 16.6069 22.4786 16.7391 22.4786H25.563C25.759 22.4805 25.9463 22.5596 26.0842 22.6989C26.2221 22.8381 26.2995 23.0262 26.2995 23.2222C26.2995 23.4181 26.2221 23.6062 26.0842 23.7454C25.9463 23.8847 25.759 23.9639 25.563 23.9657H20.7647C20.5472 23.9657 20.3385 24.0522 20.1847 24.206C20.0308 24.3598 19.9444 24.5685 19.9444 24.786C19.9444 25.0036 20.0308 25.2123 20.1847 25.3661C20.3385 25.5199 20.5472 25.6064 20.7647 25.6064ZM2.83406 23.2495C2.83406 23.0319 2.92049 22.8233 3.07432 22.6694C3.22816 22.5156 3.43681 22.4292 3.65437 22.4292H4.25635C4.47391 22.4292 4.68256 22.5156 4.83639 22.6694C4.99023 22.8233 5.07666 23.0319 5.07666 23.2495C5.07666 23.467 4.99023 23.6757 4.83639 23.8295C4.68256 23.9834 4.47391 24.0698 4.25635 24.0698H3.65444C3.43688 24.0698 3.22823 23.9834 3.07439 23.8295C2.92055 23.6757 2.83413 23.467 2.83413 23.2495H2.83406ZM21.0218 4.01184C20.9732 3.86232 20.8827 3.72991 20.761 3.63038C20.6393 3.53084 20.4916 3.46837 20.3354 3.4504L17.4524 3.11872L16.2461 0.479366C16.1807 0.336381 16.0757 0.215187 15.9434 0.130212C15.8111 0.0452375 15.6572 6.10352e-05 15.5 6.10352e-05C15.3428 6.10352e-05 15.1889 0.0452375 15.0566 0.130212C14.9244 0.215187 14.8193 0.336381 14.754 0.479366L13.5475 3.11872L10.6646 3.4504C10.5085 3.46838 10.3607 3.53086 10.2391 3.63039C10.1174 3.72993 10.0269 3.86233 9.97829 4.01184C9.92971 4.16135 9.92511 4.32167 9.96505 4.47372C10.005 4.62576 10.0878 4.76313 10.2035 4.86947L12.3409 6.83241L11.7655 9.67678C11.7343 9.83087 11.7481 9.99067 11.8051 10.1372C11.8622 10.2836 11.9602 10.4106 12.0873 10.5031C12.2145 10.5955 12.3656 10.6494 12.5225 10.6584C12.6795 10.6674 12.8357 10.6311 12.9726 10.5538L15.5 9.12758L18.0273 10.5538C18.1643 10.6311 18.3205 10.6674 18.4774 10.6584C18.6344 10.6494 18.7855 10.5955 18.9126 10.5031C19.0398 10.4106 19.1378 10.2836 19.1948 10.1372C19.2519 9.99067 19.2657 9.83087 19.2345 9.67678L18.6591 6.83241L20.7965 4.86947C20.9123 4.76314 20.9951 4.62577 21.035 4.47372C21.075 4.32168 21.0704 4.16135 21.0218 4.01184ZM17.2085 5.93718C17.1044 6.03272 17.0268 6.15351 16.9832 6.28785C16.9395 6.42219 16.9313 6.56552 16.9593 6.70397L17.2706 8.24294L15.9034 7.4713C15.7804 7.40189 15.6415 7.36542 15.5003 7.36542C15.3591 7.36542 15.2202 7.40189 15.0972 7.4713L13.73 8.24294L14.0413 6.70397C14.0693 6.56552 14.0611 6.42219 14.0174 6.28785C13.9738 6.15351 13.8962 6.03272 13.7921 5.93718L12.6352 4.87508L14.195 4.69564C14.3353 4.6795 14.4691 4.62739 14.5834 4.54436C14.6977 4.46132 14.7886 4.35018 14.8473 4.2217L15.5 2.79367L16.1527 4.2217C16.2114 4.35017 16.3023 4.46131 16.4166 4.54434C16.5309 4.62737 16.6647 4.67949 16.805 4.69564L18.3649 4.87508L17.2085 5.93718ZM30.7941 7.08801C30.7455 6.93849 30.655 6.80609 30.5333 6.70655C30.4116 6.60701 30.2639 6.54454 30.1077 6.52657L27.8688 6.26893L26.9322 4.21917C26.8669 4.07619 26.7618 3.95499 26.6296 3.87002C26.4973 3.78504 26.3434 3.73987 26.1862 3.73987C26.029 3.73987 25.8751 3.78504 25.7428 3.87002C25.6105 3.95499 25.5055 4.07619 25.4401 4.21917L24.503 6.26893L22.264 6.52657C22.1078 6.54455 21.9601 6.60703 21.8384 6.70657C21.7167 6.8061 21.6262 6.9385 21.5776 7.08801C21.5291 7.23752 21.5245 7.39784 21.5644 7.54989C21.6043 7.70193 21.6871 7.8393 21.8029 7.94565L23.4628 9.47006L23.0159 11.679C22.9848 11.8331 22.9985 11.9929 23.0556 12.1394C23.1127 12.2859 23.2106 12.4129 23.3378 12.5053C23.465 12.5977 23.616 12.6516 23.773 12.6606C23.9299 12.6696 24.0862 12.6333 24.2231 12.5561L26.1859 11.4487L28.1486 12.5561C28.2855 12.6333 28.4418 12.6696 28.5987 12.6606C28.7557 12.6516 28.9067 12.5977 29.0339 12.5053C29.1611 12.4129 29.2591 12.2859 29.3161 12.1394C29.3732 11.9929 29.387 11.8331 29.3558 11.679L28.9089 9.47006L30.5689 7.94565C30.6847 7.8393 30.7674 7.70192 30.8073 7.54987C30.8473 7.39783 30.8427 7.23751 30.7941 7.08801ZM27.4581 8.57483C27.3541 8.67038 27.2765 8.79118 27.2328 8.92553C27.1892 9.05988 27.181 9.20322 27.209 9.34168L27.3917 10.2453L26.5889 9.79217C26.4659 9.72275 26.327 9.68627 26.1857 9.68627C26.0445 9.68627 25.9056 9.72275 25.7826 9.79217L24.9798 10.2453L25.1626 9.34168C25.1906 9.20322 25.1824 9.05988 25.1387 8.92553C25.095 8.79118 25.0174 8.67038 24.9134 8.57483L24.2344 7.95125L25.1504 7.84591C25.2907 7.82977 25.4245 7.77766 25.5388 7.69463C25.6531 7.6116 25.744 7.50046 25.8027 7.37197L26.186 6.53355L26.5691 7.37197C26.6278 7.50046 26.7188 7.6116 26.833 7.69463C26.9473 7.77766 27.0811 7.82977 27.2215 7.84591L28.1375 7.95125L27.4581 8.57483ZM9.42288 7.08801C9.3743 6.93849 9.28377 6.80609 9.16208 6.70655C9.04039 6.60701 8.89266 6.54454 8.73648 6.52657L6.4971 6.26893L5.56057 4.21917C5.49522 4.07619 5.39015 3.95499 5.25788 3.87002C5.12562 3.78504 4.97171 3.73987 4.8145 3.73987C4.65729 3.73987 4.50339 3.78504 4.37112 3.87002C4.23885 3.95499 4.13378 4.07619 4.06843 4.21917L3.13129 6.26893L0.892381 6.52657C0.736204 6.54454 0.588479 6.60701 0.466791 6.70654C0.345104 6.80607 0.254579 6.93847 0.205992 7.08799C0.157406 7.2375 0.152805 7.39782 0.192736 7.54987C0.232668 7.70192 0.31545 7.8393 0.431229 7.94565L2.0912 9.47006L1.64433 11.679C1.61317 11.8331 1.62693 11.9929 1.684 12.1394C1.74106 12.2859 1.83901 12.4129 1.9662 12.5053C2.09338 12.5977 2.24444 12.6516 2.40139 12.6606C2.55834 12.6696 2.71458 12.6333 2.85149 12.5561L4.81429 11.4487L6.77703 12.5561C6.91395 12.6333 7.07018 12.6696 7.22713 12.6606C7.38408 12.6516 7.53514 12.5977 7.66232 12.5053C7.78951 12.4129 7.88746 12.2859 7.94453 12.1394C8.00159 11.9929 8.01535 11.8331 7.98419 11.679L7.53732 9.47006L9.19722 7.94565C9.31307 7.83935 9.39593 7.702 9.43594 7.54995C9.47594 7.3979 9.47141 7.23756 9.42288 7.08801ZM6.08694 8.57483C5.98289 8.67038 5.90529 8.79118 5.86163 8.92553C5.81798 9.05988 5.80976 9.20322 5.83777 9.34168L6.02057 10.2453L5.21775 9.79217C5.09469 9.72268 4.95576 9.68617 4.81443 9.68617C4.67311 9.68617 4.53418 9.72268 4.41111 9.79217L3.6083 10.2453L3.79102 9.34168C3.81904 9.20322 3.81082 9.05988 3.76716 8.92553C3.72351 8.79118 3.6459 8.67038 3.54185 8.57483L2.86291 7.95125L3.77892 7.84591C3.91927 7.82977 4.05306 7.77766 4.16735 7.69463C4.28164 7.6116 4.37255 7.50046 4.43128 7.37197L4.8145 6.53355L5.19731 7.37197C5.25604 7.50046 5.34695 7.6116 5.46124 7.69463C5.57553 7.77766 5.70932 7.82977 5.84967 7.84591L6.76568 7.95125L6.08694 8.57483Z" fill="#9D4858"/>
</svg>
