<svg width="40" height="36" viewBox="0 0 40 36" fill="none" xmlns="http://www.w3.org/2000/svg">
<path fill-rule="evenodd" clip-rule="evenodd" d="M39.7372 30.8587C39.7424 30.8891 39.745 30.9198 39.745 30.9507V34.7111C39.745 35.0143 39.4992 35.2601 39.196 35.2601H1.54891C1.2457 35.2601 0.999893 35.0143 0.999893 34.7111V30.9507C0.999893 30.9198 1.00248 30.8891 1.00766 30.8587L6.0046 1.45702C6.04946 1.1931 6.27817 1 6.54585 1H34.199C34.4667 1 34.6954 1.1931 34.7403 1.45702L39.7372 30.8587ZM2.09793 31.4997V34.162H38.647V31.4997H2.09793ZM15.3095 2.09804H7.00946L5.76005 9.44941H14.6381C15.0225 5.24047 15.3095 2.09804 15.3095 2.09804ZM5.57346 10.5475L3.79958 20.9849H13.5846C13.895 17.5867 14.2391 13.8185 14.5379 10.5475H5.57346ZM3.61291 22.0829L2.19911 30.4016H12.7247C12.8343 29.201 13.1302 25.9616 13.4844 22.0829H3.61291ZM24.8 2.09804H16.4121L15.4779 12.3276H25.581L24.8 2.09804ZM38.5458 30.4016L37.2174 22.5853H27.4654L28.0622 30.4016H38.5458ZM37.0307 21.4873L36.3297 17.3626H27.0666L27.3815 21.4873H37.0307ZM36.1431 16.2645L34.6231 7.32078H26.3L26.9828 16.2645H36.1431ZM34.4364 6.22274L33.7354 2.09804H25.9012L26.2161 6.22274H34.4364ZM14.4208 23.9018L13.8273 30.4016H26.9609L26.4647 23.9018H14.4208ZM15.3775 13.4256L14.5211 22.8038H26.3808L25.6648 13.4256H15.3775Z" fill="#9D4858" stroke="#9D4858" stroke-width="0.75"/>
</svg>
