<svg width="12" height="10" viewBox="0 0 12 10" fill="none" xmlns="http://www.w3.org/2000/svg">
<path d="M0.724701 4.44543H10.1053L6.51328 1.02414C6.3252 0.844993 6.31791 0.547346 6.49706 0.35926C6.67597 0.171409 6.97362 0.163886 7.16194 0.343038L11.2641 4.25052C11.4416 4.42827 11.5396 4.66431 11.5396 4.91564C11.5396 5.16673 11.4416 5.40302 11.2558 5.58852L7.1617 9.488C7.07072 9.57477 6.95411 9.61782 6.83749 9.61782C6.71336 9.61782 6.58922 9.56892 6.49682 9.47179C6.31767 9.2837 6.32496 8.98627 6.51305 8.80713L10.1201 5.38586H0.724701C0.465142 5.38586 0.254486 5.1752 0.254486 4.91564C0.254486 4.65608 0.465142 4.44543 0.724701 4.44543Z" fill="white"/>
</svg>
