<svg width="24" height="19" viewBox="0 0 24 19" fill="none" xmlns="http://www.w3.org/2000/svg">
<path d="M21.0212 4.99267C21.0212 5.2124 21.0212 5.38818 21.0212 5.60791C21.0212 11.7163 16.407 18.7036 7.9255 18.7036C5.28878 18.7036 2.87179 17.9565 0.850307 16.6382C1.20187 16.6821 1.55343 16.7261 1.94894 16.7261C4.10226 16.7261 6.0798 15.979 7.66183 14.7485C5.64035 14.7046 3.92648 13.3862 3.35519 11.5405C3.66281 11.5845 3.92648 11.6284 4.2341 11.6284C4.6296 11.6284 5.06906 11.5405 5.42062 11.4526C3.31125 11.0132 1.72921 9.16748 1.72921 6.92627V6.88232C2.34445 7.23388 3.09152 7.40967 3.83859 7.45361C2.56417 6.61865 1.77316 5.2124 1.77316 3.63037C1.77316 2.75146 1.99289 1.96045 2.38839 1.30127C4.67355 4.06982 8.10129 5.91553 11.9245 6.13525C11.8366 5.78369 11.7927 5.43213 11.7927 5.08056C11.7927 2.53174 13.8581 0.466306 16.407 0.466306C17.7253 0.466306 18.9118 0.993649 19.7907 1.9165C20.8015 1.69677 21.8122 1.30127 22.6911 0.773923C22.3396 1.87256 21.6364 2.75146 20.6696 3.32275C21.5925 3.23486 22.5154 2.97119 23.3064 2.61963C22.6911 3.54248 21.9001 4.33349 21.0212 4.99267Z" fill="#222222"/>
</svg>
